<?xml version="1.0" encoding="utf-8"?>
<!-- Generator: Adobe Illustrator 21.0.0, SVG Export Plug-In . SVG Version: 6.00 Build 0)  -->
<svg version="1.1" id="Layer_1" xmlns="http://www.w3.org/2000/svg" xmlns:xlink="http://www.w3.org/1999/xlink" x="0px" y="0px"
	 viewBox="0 0 460 230" style="enable-background:new 0 0 460 230;" xml:space="preserve">
<style type="text/css">
	.st0{fill:#90DAF4;stroke:#0091E2;stroke-width:1.5079;stroke-linecap:round;stroke-miterlimit:10;stroke-dasharray:5.0273,5.0273;}
	.st1{fill:none;stroke:#1B1E28;stroke-miterlimit:10;}
	.st2{fill:#1B1E28;}
	.st3{fill:#FFFFFF;stroke:url(#SVGID_1_);stroke-width:3;stroke-miterlimit:10;}
	.st4{display:none;}
	.st5{display:inline;fill:#0D9B76;}
	.st6{fill:none;stroke:#7AC943;stroke-miterlimit:10;}
	.st7{fill:#252933;}
	.st8{fill:none;stroke:#FFFFFF;stroke-width:1.6826;stroke-miterlimit:10;}
	.st9{fill:none;stroke:#FFFFFF;stroke-width:1.2619;stroke-miterlimit:10;}
	.st10{fill:#FFFFFF;}
	.st11{fill:#FFFFFF;stroke:#1B1E28;stroke-width:1.5;stroke-miterlimit:10;}
	.st12{fill:none;stroke:#1B1E28;stroke-width:0.8205;stroke-miterlimit:10;}
	.st13{fill:none;stroke:#1B1E28;stroke-width:0.8971;stroke-miterlimit:10;}
	.st14{fill:none;stroke:#1B1E28;stroke-width:0.6728;stroke-miterlimit:10;}
	.st15{fill:#1ED5A7;}
	.st16{fill:#0D9B76;}
	.st17{fill:url(#SVGID_2_);stroke:#1B1E28;stroke-width:0.9977;stroke-miterlimit:10;}
	.st18{fill:url(#SVGID_3_);stroke:#1B1E28;stroke-width:0.8071;stroke-miterlimit:10;}
	.st19{fill:none;stroke:#1B1E28;stroke-width:0.8071;stroke-miterlimit:10;}
	.st20{fill:url(#SVGID_4_);}
	.st21{fill:#0091E2;}
	.st22{fill:none;stroke:#1B1E28;stroke-width:1.5;stroke-linecap:square;stroke-miterlimit:10;}
	.st23{fill:none;stroke:#1B1E28;stroke-linecap:round;stroke-miterlimit:10;}
</style>
<path class="st0" d="M446.2,208.5h-324c-2.8,0-5-2.2-5-5V21.9c0-2.8,2.2-5,5-5h324c2.8,0,5,2.2,5,5v181.6
	C451.2,206.3,449,208.5,446.2,208.5z"/>
<g>
	<g>
		<line class="st1" x1="303.6" y1="113.8" x2="280.3" y2="113.8"/>
		<g>
			<polygon class="st2" points="302.8,111.1 307.5,113.8 302.8,116.5 			"/>
		</g>
		<g>
			<polygon class="st2" points="281.1,111.1 276.3,113.8 281.1,116.5 			"/>
		</g>
	</g>
</g>
<linearGradient id="SVGID_1_" gradientUnits="userSpaceOnUse" x1="190.1564" y1="1190.9963" x2="269.8436" y2="1237.0037" gradientTransform="matrix(1 0 0 1 0 -1100)">
	<stop  offset="0" style="stop-color:#0D9B76"/>
	<stop  offset="0.1047" style="stop-color:#1F948D"/>
	<stop  offset="0.3206" style="stop-color:#3F87B6"/>
	<stop  offset="0.4907" style="stop-color:#537FD0"/>
	<stop  offset="0.5928" style="stop-color:#5A7CD9"/>
	<stop  offset="0.8652" style="stop-color:#30BBB6"/>
	<stop  offset="1" style="stop-color:#1ED5A7"/>
</linearGradient>
<circle class="st3" cx="230" cy="114" r="44.5"/>
<g id="Inner_cirlce_edges" class="st4">
	<rect x="403" y="271.8" class="st5" width="10.1" height="3.7"/>
	<rect x="403" y="357.7" class="st5" width="10.1" height="5.5"/>
	<rect x="362" y="315.9" class="st5" width="5.5" height="4.1"/>
	<rect x="449.2" y="315.9" class="st5" width="5.5" height="4.1"/>
	
		<rect x="374.5" y="285.1" transform="matrix(0.7071 -0.7071 0.7071 0.7071 -92.2929 351.0794)" class="st5" width="6.3" height="3.7"/>
	
		<rect x="436.9" y="283.8" transform="matrix(0.7071 -0.7071 0.7071 0.7071 -74.3955 394.2899)" class="st5" width="3.7" height="6.3"/>
	
		<rect x="375.8" y="344.8" transform="matrix(0.7071 -0.7071 0.7071 0.7071 -135.4248 368.9453)" class="st5" width="3.7" height="6.3"/>
	
		<rect x="436.7" y="346.4" transform="matrix(0.7071 -0.7071 0.7071 0.7071 -117.7015 412.3445)" class="st5" width="4.4" height="3.7"/>
</g>
<g id="Inner_cirlce_edges_1_" class="st4">
	<rect x="120" y="210.8" class="st5" width="10.1" height="3.7"/>
	<rect x="120" y="296.7" class="st5" width="10.1" height="5.5"/>
	<rect x="79" y="254.9" class="st5" width="5.5" height="4.1"/>
	<rect x="166.2" y="254.9" class="st5" width="5.5" height="4.1"/>
	
		<rect x="91.5" y="224.1" transform="matrix(0.7071 -0.7071 0.7071 0.7071 -132.0479 133.104)" class="st5" width="6.3" height="3.7"/>
	
		<rect x="153.9" y="222.8" transform="matrix(0.7071 -0.7071 0.7071 0.7071 -114.1504 176.3146)" class="st5" width="3.7" height="6.3"/>
	
		<rect x="92.8" y="283.8" transform="matrix(0.7071 -0.7071 0.7071 0.7071 -175.1796 150.97)" class="st5" width="3.7" height="6.3"/>
	
		<rect x="153.7" y="285.4" transform="matrix(0.7071 -0.7071 0.7071 0.7071 -157.4563 194.3691)" class="st5" width="4.4" height="3.7"/>
</g>
<path class="st6" d="M-13.5-37.5"/>
<g id="Inner_cirlce_edges_2_" class="st4">
	<rect x="723" y="-42.2" class="st5" width="10.1" height="3.7"/>
	<rect x="723" y="43.7" class="st5" width="10.1" height="5.5"/>
	<rect x="682" y="1.9" class="st5" width="5.5" height="4.1"/>
	<rect x="769.2" y="1.9" class="st5" width="5.5" height="4.1"/>
	
		<rect x="694.5" y="-28.9" transform="matrix(0.7071 -0.7071 0.7071 0.7071 223.461 485.3837)" class="st5" width="6.3" height="3.7"/>
	
		<rect x="756.9" y="-30.2" transform="matrix(0.7071 -0.7071 0.7071 0.7071 241.3584 528.5941)" class="st5" width="3.7" height="6.3"/>
	
		<rect x="695.8" y="30.8" transform="matrix(0.7071 -0.7071 0.7071 0.7071 180.3291 503.2496)" class="st5" width="3.7" height="6.3"/>
	
		<rect x="756.7" y="32.4" transform="matrix(0.7071 -0.7071 0.7071 0.7071 198.0525 546.6487)" class="st5" width="4.4" height="3.7"/>
</g>
<g>
	<g>
		<rect x="308.4" y="49.5" class="st2" width="45.9" height="129.7"/>
		<ellipse class="st7" cx="331.4" cy="49.5" rx="23" ry="5.1"/>
		<ellipse class="st2" cx="331.4" cy="179.1" rx="23" ry="5.1"/>
	</g>
	<g id="Kafka_logo_2_">
		<circle class="st8" cx="327" cy="113.6" r="3.6"/>
		<circle class="st8" cx="327" cy="124.6" r="2.9"/>
		<circle class="st8" cx="327" cy="102.7" r="2.9"/>
		<circle class="st8" cx="336.5" cy="108.4" r="2.9"/>
		<circle class="st8" cx="336.5" cy="118.9" r="2.9"/>
		<line class="st9" x1="327" y1="105.5" x2="327" y2="110.4"/>
		<line class="st9" x1="327" y1="116.9" x2="327" y2="122.5"/>
		<line class="st9" x1="333.7" y1="110.4" x2="330.8" y2="112.5"/>
		<line class="st9" x1="334.5" y1="117.7" x2="330.5" y2="115.3"/>
	</g>
	<g>
		<g>
			<g>
				<path class="st10" d="M321,137.1l2.2,3.1h-0.9l-1.7-2.6l-0.9,1v1.6H319V133h0.7v4.6l2.4-2.6h1L321,137.1z"/>
				<path class="st10" d="M323.3,140.3h-1.1l0,0l-1.7-2.5l-0.8,0.9v1.7h-0.9V133h0.9v4.5l2.3-2.4h1.3l-2.1,2.1L323.3,140.3z
					 M322.2,140.1h0.7l-2.1-3V137l1.9-1.9H322l-2.5,2.7v-4.7h-0.6v7h0.6v-1.6l0,0l1-1l0.1,0.1L322.2,140.1z"/>
			</g>
			<g>
				<path class="st10" d="M327.7,135.9v-0.8h0.7v5.1h-0.7v-0.8c-0.4,0.6-1,0.9-1.8,0.9c-1.5,0-2.4-1.2-2.4-2.7s1-2.7,2.4-2.7
					C326.7,135,327.3,135.4,327.7,135.9z M327.7,137.7c0-1.1-0.6-2-1.7-2s-1.8,0.9-1.8,2s0.7,2,1.8,2
					C327.1,139.6,327.7,138.7,327.7,137.7z"/>
				<path class="st10" d="M325.9,140.4c-1.4,0-2.5-1.2-2.5-2.7s1.1-2.7,2.5-2.7c0.7,0,1.3,0.3,1.7,0.7V135h0.9v5.3h-0.9v-0.7
					C327.2,140.1,326.6,140.4,325.9,140.4z M325.9,135.1c-1.3,0-2.3,1.1-2.3,2.6s1,2.6,2.3,2.6c0.8,0,1.3-0.3,1.7-0.9l0.2-0.2v1h0.6
					v-5h-0.6v1l-0.2-0.2C327.2,135.4,326.6,135.1,325.9,135.1z M326,139.7c-1.1,0-1.9-0.8-1.9-2s0.8-2,1.9-2s1.8,0.8,1.8,2
					S327,139.7,326,139.7z M326,135.8c-1,0-1.7,0.8-1.7,1.9s0.7,1.9,1.7,1.9c1.1,0,1.6-0.9,1.6-1.9S327.1,135.8,326,135.8z"/>
			</g>
			<g>
				<path class="st10" d="M331.8,133.7c-0.7,0-1.1,0.3-1.1,1v0.4h1.2v0.7h-1.2v4.5H330v-4.5h-0.9v-0.7h0.9v-0.5
					c0-1.1,0.7-1.7,1.8-1.7h0.1L331.8,133.7L331.8,133.7z"/>
				<path class="st10" d="M330.9,140.3H330v-4.5h-0.9V135h0.9v-0.4c0-1.1,0.7-1.8,1.9-1.8h0.1v0.9h-0.2c-0.7,0-1,0.3-1,0.9v0.3h1.2
					v0.9h-1.2v4.5L330.9,140.3L330.9,140.3z M330.1,140.1h0.6v-4.5h1.2v-0.5h-1.2v-0.5c0-0.7,0.4-1.1,1.1-1.1l0,0V133
					c-1.1,0-1.7,0.6-1.7,1.6v0.5h-0.9v0.5h0.9V140.1z"/>
			</g>
			<g>
				<path class="st10" d="M335,137.1l2.2,3.1h-0.9l-1.7-2.6l-0.9,1v1.6H333V133h0.7v4.6l2.4-2.6h1L335,137.1z"/>
				<path class="st10" d="M337.3,140.3h-1.1l0,0l-1.7-2.5l-0.8,0.9v1.7h-0.9V133h0.9v4.5l2.3-2.4h1.3l-2.1,2.1L337.3,140.3z
					 M336.2,140.1h0.7l-2.1-3V137l1.9-1.9H336l-2.5,2.7v-4.7h-0.6v7h0.6v-1.6l0,0l1-1l0.1,0.1L336.2,140.1z"/>
			</g>
			<g>
				<path class="st10" d="M341.7,135.9v-0.8h0.7v5.1h-0.7v-0.8c-0.4,0.6-1,0.9-1.8,0.9c-1.5,0-2.4-1.2-2.4-2.7s1-2.7,2.4-2.7
					C340.7,135,341.3,135.4,341.7,135.9z M341.7,137.7c0-1.1-0.6-2-1.7-2s-1.8,0.9-1.8,2s0.7,2,1.8,2
					C341.1,139.6,341.7,138.7,341.7,137.7z"/>
				<path class="st10" d="M339.9,140.4c-1.4,0-2.5-1.2-2.5-2.7s1.1-2.7,2.5-2.7c0.7,0,1.3,0.3,1.7,0.7V135h0.9v5.3h-0.9v-0.7
					C341.2,140.1,340.6,140.4,339.9,140.4z M339.9,135.1c-1.3,0-2.3,1.1-2.3,2.6s1,2.6,2.3,2.6c0.8,0,1.3-0.3,1.7-0.9l0.2-0.2v1h0.6
					v-5h-0.6v1l-0.2-0.2C341.2,135.4,340.6,135.1,339.9,135.1z M340,139.7c-1.1,0-1.9-0.8-1.9-2s0.8-2,1.9-2s1.8,0.8,1.8,2
					S341,139.7,340,139.7z M340,135.8c-1,0-1.7,0.8-1.7,1.9s0.7,1.9,1.7,1.9c1.1,0,1.6-0.9,1.6-1.9S341.1,135.8,340,135.8z"/>
			</g>
		</g>
	</g>
</g>
<rect x="388.1" y="100.2" class="st11" width="52.9" height="27.6"/>
<line class="st12" x1="405.7" y1="103.4" x2="405.7" y2="125.5"/>
<g id="Kafka_logo_5_">
	<circle class="st13" cx="394.6" cy="114.4" r="1.9"/>
	<circle class="st13" cx="394.6" cy="120.3" r="1.5"/>
	<circle class="st13" cx="394.6" cy="108.6" r="1.5"/>
	<circle class="st13" cx="399.7" cy="111.6" r="1.5"/>
	<circle class="st13" cx="399.7" cy="117.2" r="1.5"/>
	<line class="st14" x1="394.6" y1="110.1" x2="394.6" y2="112.7"/>
	<line class="st14" x1="394.6" y1="116.2" x2="394.6" y2="119.2"/>
	<line class="st14" x1="398.2" y1="112.7" x2="396.6" y2="113.8"/>
	<line class="st14" x1="398.6" y1="116.6" x2="396.4" y2="115.3"/>
</g>
<g>
	<g>
		<g>
			<path class="st2" d="M414.2,119h-0.6c0-0.4-0.3-0.6-1-0.6c-0.6,0-0.9,0.2-0.9,0.6c0,1,2.6,0.3,2.6,1.9c0,0.8-0.6,1.2-1.6,1.2
				c-1.1,0-1.7-0.6-1.7-1.4h0.6c0,0.4,0.3,0.8,1.1,0.8c0.3,0,1-0.1,1-0.6c0-1-2.6-0.4-2.6-1.9c0-0.7,0.5-1.2,1.6-1.2
				C413.6,117.8,414.1,118.4,414.2,119z"/>
			<path class="st2" d="M412.7,122.2c-1.2,0-1.8-0.7-1.8-1.5v-0.1h0.8v0.1c0,0.2,0.2,0.7,1,0.7c0.2,0,0.9,0,0.9-0.5
				c0-0.4-0.4-0.5-1.1-0.6c-0.7-0.2-1.6-0.4-1.6-1.3c0-0.8,0.6-1.3,1.7-1.3c0.9,0,1.6,0.5,1.7,1.3v0.1h-0.8V119
				c0-0.4-0.3-0.6-0.9-0.6c-0.8,0-0.8,0.3-0.8,0.5c0,0.3,0.4,0.4,1,0.6c0.7,0.2,1.6,0.4,1.6,1.3
				C414.4,121.7,413.7,122.2,412.7,122.2z M411.1,120.8c0.1,0.6,0.5,1.1,1.6,1.1c1,0,1.5-0.4,1.5-1.1c0-0.8-0.7-0.9-1.5-1.1
				c-0.6-0.1-1.2-0.3-1.2-0.8s0.4-0.7,1-0.7c0.7,0,1,0.3,1.1,0.6h0.4c-0.1-0.4-0.4-1-1.4-1c-0.7,0-1.5,0.2-1.5,1.1
				c0,0.7,0.7,0.9,1.4,1.1c0.6,0.1,1.2,0.3,1.2,0.8c0,0.6-0.6,0.8-1.1,0.8c-0.9,0-1.1-0.6-1.2-0.8H411.1z"/>
		</g>
		<g>
			<path class="st2" d="M418,120.8h0.7c-0.3,0.7-0.9,1.2-1.8,1.2c-1.2,0-2-0.9-2-2.1s0.8-2.1,2-2.1s2,0.9,2,2.1v0.2h-3.3
				c0.1,0.7,0.6,1.3,1.4,1.3C417.4,121.5,417.7,121.2,418,120.8z M415.4,119.6h2.7c-0.1-0.7-0.6-1.2-1.3-1.2
				S415.5,118.9,415.4,119.6z"/>
			<path class="st2" d="M416.8,122.2c-1.2,0-2.1-0.9-2.1-2.2c0-1.3,0.9-2.2,2.1-2.2s2.1,0.9,2.1,2.2v0.3h-3.3
				c0.1,0.7,0.6,1.1,1.3,1.1c0.6,0,0.9-0.3,1.1-0.6v-0.1h0.9l-0.1,0.1C418.4,121.7,417.7,122.2,416.8,122.2z M416.8,117.9
				c-1.1,0-1.9,0.8-1.9,2s0.8,2,1.9,2c1,0,1.4-0.5,1.7-1h-0.4c-0.3,0.4-0.7,0.7-1.2,0.7c-0.8,0-1.4-0.6-1.5-1.4v-0.1h3.3V120
				C418.6,118.7,417.9,117.9,416.8,117.9z M418.2,119.7h-2.9v-0.1c0.1-0.8,0.7-1.3,1.5-1.3s1.3,0.5,1.5,1.3L418.2,119.7z
				 M415.5,119.5h2.4c-0.1-0.6-0.6-1-1.2-1C416.1,118.5,415.7,118.9,415.5,119.5z"/>
		</g>
		<g>
			<path class="st2" d="M421.6,117.8v0.6h-0.1c-0.9,0-1.4,0.8-1.4,1.7v1.8h-0.6v-4.1h0.6v1C420.1,118.6,420.5,117.8,421.6,117.8
				L421.6,117.8z"/>
			<path class="st2" d="M420.2,122.1h-0.8v-4.3h0.8v0.7c0.2-0.4,0.7-0.7,1.4-0.7h0.1v0.8h-0.2c-0.9,0-1.3,0.8-1.3,1.6V122.1z
				 M419.6,121.9h0.4v-1.7c0-0.9,0.5-1.8,1.5-1.9v-0.4c-1,0-1.3,1-1.3,1l-0.2,0.7V118h-0.4V121.9z"/>
		</g>
		<g>
			<path class="st2" d="M425.5,117.9L424,122h-0.7l-1.6-4.1h0.7l1.3,3.4l1.2-3.4H425.5z"/>
			<path class="st2" d="M424.1,122.1h-0.8V122l-1.6-4.2h0.9l1.2,3.2l1.2-3.2h0.9L424.1,122.1z M423.4,121.9h0.6l1.5-3.9h-0.4
				l-1.3,3.6l-1.3-3.6h-0.4L423.4,121.9z"/>
		</g>
		<g>
			<path class="st2" d="M426.7,116.4v0.8h-0.6v-0.8H426.7z M426.1,117.9h0.6v4.1h-0.6V117.9z"/>
			<path class="st2" d="M426.8,122.1H426v-4.3h0.8V122.1z M426.2,121.9h0.4V118h-0.4V121.9z M426.8,117.3H426v-1h0.8V117.3z
				 M426.2,117.1h0.4v-0.6h-0.4V117.1z"/>
		</g>
		<g>
			<path class="st2" d="M430.7,120.7h0.6c-0.2,0.8-0.9,1.4-1.9,1.4c-1.2,0-2-0.9-2-2.1s0.8-2.1,2-2.1c0.9,0,1.6,0.6,1.9,1.4h-0.6
				c-0.2-0.5-0.6-0.8-1.2-0.8c-0.9,0-1.4,0.7-1.4,1.6c0,0.8,0.6,1.6,1.4,1.6C430.1,121.5,430.5,121.2,430.7,120.7z"/>
			<path class="st2" d="M429.4,122.2c-1.2,0-2.1-0.9-2.1-2.2c0-1.3,0.9-2.2,2.1-2.2c0.9,0,1.7,0.6,2,1.4v0.1h-0.8v-0.1
				c-0.2-0.5-0.6-0.7-1.1-0.7c-0.9,0-1.3,0.7-1.3,1.5c0,0.7,0.5,1.5,1.3,1.5c0.5,0,0.9-0.3,1.1-0.7v-0.1h0.9v0.1
				C431.1,121.6,430.4,122.2,429.4,122.2z M429.4,117.9c-1.1,0-1.8,0.8-1.8,2s0.8,2,1.8,2c0.8,0,1.5-0.4,1.7-1.1h-0.4
				c-0.2,0.5-0.7,0.8-1.2,0.8c-0.9,0-1.5-0.7-1.5-1.7s0.6-1.7,1.5-1.7c0.5,0,1,0.3,1.2,0.8h0.4C430.9,118.4,430.2,117.9,429.4,117.9
				z"/>
		</g>
		<g>
			<path class="st2" d="M435,120.8h0.7c-0.3,0.7-0.9,1.2-1.8,1.2c-1.2,0-2-0.9-2-2.1s0.8-2.1,2-2.1s2,0.9,2,2.1v0.2h-3.3
				c0.1,0.7,0.6,1.3,1.4,1.3C434.4,121.5,434.7,121.2,435,120.8z M432.4,119.6h2.7c-0.1-0.7-0.6-1.2-1.3-1.2
				S432.5,118.9,432.4,119.6z"/>
			<path class="st2" d="M433.8,122.2c-1.2,0-2.1-0.9-2.1-2.2c0-1.3,0.9-2.2,2.1-2.2s2.1,0.9,2.1,2.2v0.3h-3.3
				c0.1,0.7,0.6,1.1,1.3,1.1c0.6,0,0.9-0.3,1.1-0.6v-0.1h0.9l-0.1,0.1C435.4,121.7,434.7,122.2,433.8,122.2z M433.8,117.9
				c-1.1,0-1.9,0.8-1.9,2s0.8,2,1.9,2c1,0,1.4-0.5,1.7-1h-0.4c-0.3,0.4-0.7,0.7-1.2,0.7c-0.8,0-1.4-0.6-1.5-1.4v-0.1h3.3V120
				C435.6,118.7,434.9,117.9,433.8,117.9z M435.2,119.7h-2.9v-0.1c0.1-0.8,0.7-1.3,1.5-1.3s1.3,0.5,1.5,1.3L435.2,119.7z
				 M432.5,119.5h2.4c-0.1-0.6-0.6-1-1.2-1C433.1,118.5,432.7,118.9,432.5,119.5z"/>
		</g>
	</g>
</g>
<path class="st6" d="M388.2,113.8"/>
<g>
	<g>
		<path class="st2" d="M180,111.4l-25.6-1.1c0.8-20.1,9.9-39.4,24.6-52.8l17.3,19C186.5,85.4,180.6,98.1,180,111.4z"/>
		<path class="st15" d="M181,112.5l-27.6-1.2v-1c0.9-20.3,10-39.8,25-53.5l0.7-0.6l18.6,20.5l-0.7,0.6c-9.6,8.7-15.4,21.2-15.9,34.2
			L181,112.5z M155.5,109.3l23.6,1c0.8-12.8,6.5-25.1,15.9-33.9l-16-17.6C165.1,71.9,156.5,90.2,155.5,109.3z"/>
	</g>
	<g>
		<g id="WebSocket_logo_3_">
			<path class="st10" d="M175.1,92.7l0.8-1.4l-3.4-1.9l-2.5,0.7l0.4,1.6l1.8-0.5L175.1,92.7L175.1,92.7z M176.6,91.6l-1.2,2.1
				l-1.7,3l-1.8,0.5l-0.2-0.8l1.6-0.4l1.2-2.1l-3.1,0.9l-0.2-0.8l3.1-0.9l-2-1.1l-1.6,0.4l-0.2-0.8l-3.9,1.1l-1.4,2.5l0,0l-1.4,2.5
				l2.2-0.6l0,0l0,0l1.7-3l1.6-0.5l0.6,2.5l-1.6,0.5l-0.8-0.4l-0.8,1.4l1.4,0.8l3.9-1.1l0.4,1.6l2.5-0.7l1.4-2.5l2.6-4.6l0,0
				L176.6,91.6L176.6,91.6z"/>
		</g>
		<g>
			<g>
				<g>
					<path class="st10" d="M178,84.2c0.7,0.4,0.7,1.1,0.2,2.1c-0.6,1.1-1.3,1.2-2,0.9l0.3-0.4c0.6,0.3,1-0.1,1.4-0.8
						c0.4-0.6,0.4-1.1,0-1.4c-0.9-0.5-1.9,2.3-3.2,1.5c-0.6-0.3-0.7-1-0.3-1.9c0.6-1,1.3-1.1,1.8-0.9l-0.3,0.4
						c-0.4-0.2-0.9,0-1.3,0.6c-0.5,0.9-0.2,1.2,0.1,1.3C175.7,86.2,176.8,83.5,178,84.2z"/>
					<path class="st10" d="M177.3,87.4c-0.5,0.2-0.8,0.1-1.1-0.1l-0.1-0.1l0.4-0.7l0.1,0.1c0.6,0.3,1.1-0.3,1.2-0.7
						c0.2-0.3,0.2-0.5,0.2-0.7s-0.2-0.4-0.3-0.4c-0.3-0.2-0.7,0.2-1.1,0.7c-0.6,0.6-1.2,1.3-1.9,0.8c-0.3-0.2-0.5-0.5-0.6-0.8
						c-0.1-0.4,0.1-0.8,0.4-1.2c0.6-1.1,1.5-1.2,2-0.9l0.1,0.1l-0.4,0.6l-0.1-0.1c-0.4-0.2-0.7,0.1-1.1,0.6
						c-0.2,0.3-0.3,0.7-0.2,0.8c0,0.1,0.1,0.3,0.2,0.3c0.3,0.2,0.6-0.3,1.1-0.7c0.5-0.5,1.2-1.3,2-0.8l0,0c0.7,0.5,0.9,1.3,0.3,2.2
						C178,86.9,177.7,87.3,177.3,87.4z M176.3,87.2c0.7,0.3,1.3-0.1,1.8-1s0.4-1.6-0.1-1.9l0,0c-0.6-0.4-1.2,0.3-1.7,0.8
						c-0.4,0.5-0.9,1-1.4,0.7c-0.1-0.1-0.3-0.2-0.3-0.5s0-0.7,0.2-1c0.3-0.6,0.8-0.9,1.3-0.8l0.1-0.3c-0.5-0.1-1.1,0-1.6,0.9
						c-0.3,0.4-0.3,0.8-0.3,1.1c0,0.3,0.2,0.6,0.5,0.7c0.6,0.3,1.1-0.2,1.7-0.8c0.5-0.5,1-1.1,1.4-0.7c0.3,0.1,0.4,0.4,0.4,0.6
						s-0.1,0.6-0.3,0.9c-0.5,0.7-1,1.1-1.5,0.8L176.3,87.2z"/>
				</g>
				<g>
					<path class="st10" d="M179.9,80.8c0.7,0.4,0.7,1.1,0.2,2.1c-0.6,1.1-1.3,1.2-2,0.9l0.3-0.4c0.6,0.3,1-0.1,1.4-0.8
						c0.4-0.6,0.4-1.1,0-1.4c-0.9-0.5-1.9,2.3-3.2,1.5c-0.6-0.3-0.7-1-0.3-1.9c0.6-1,1.3-1.1,1.8-0.9l-0.3,0.4
						c-0.4-0.2-0.9,0-1.3,0.6c-0.5,0.9-0.2,1.2,0.1,1.3C177.7,82.8,178.6,80.2,179.9,80.8z"/>
					<path class="st10" d="M179.2,84c-0.5,0.2-0.8,0.1-1.1-0.1l-0.1-0.1l0.4-0.7l0.1,0.1c0.6,0.3,1.1-0.3,1.2-0.7
						c0.2-0.3,0.2-0.5,0.2-0.7s-0.2-0.4-0.3-0.4c-0.3-0.2-0.7,0.2-1.1,0.7c-0.6,0.6-1.2,1.3-1.9,0.8c-0.7-0.4-0.8-1.2-0.2-2.1
						c0.6-1.1,1.5-1.2,2-0.9l0.1,0.1l-0.4,0.6l-0.1-0.1c-0.4-0.2-0.7,0.1-1.1,0.6c-0.3,0.6-0.3,1,0.1,1.2c0.3,0.2,0.6-0.3,1.1-0.7
						c0.5-0.5,1.2-1.3,2-0.8l0,0c0.7,0.5,0.9,1.3,0.3,2.2C179.9,83.5,179.6,83.9,179.2,84z M178.3,83.8c0.7,0.3,1.3-0.1,1.8-1
						s0.4-1.6-0.1-1.9l0,0c-0.6-0.4-1.2,0.3-1.7,0.8c-0.4,0.5-0.9,1-1.4,0.7c-0.3-0.1-0.6-0.5-0.1-1.5c0.3-0.6,0.8-0.9,1.3-0.8
						l0.1-0.3c-0.5-0.1-1.1,0-1.6,0.9c-0.4,0.8-0.4,1.5,0.2,1.8s1.2-0.3,1.7-0.8s1-1.1,1.4-0.7c0.3,0.1,0.4,0.4,0.4,0.6
						s-0.1,0.6-0.3,0.9c-0.5,0.7-1,1.1-1.5,0.8L178.3,83.8z"/>
				</g>
				<g>
					<path class="st10" d="M178.3,78.6l1.3,0.7l1.1-2l0.4,0.3l-1.1,2l1.3,0.7l1.3-2.3l0.4,0.3l-1.5,2.7l-3.7-2l1.5-2.7l0.4,0.3
						L178.3,78.6z"/>
					<path class="st10" d="M181.3,81l-3.8-2.2l1.6-2.8l0.6,0.3l-1.3,2.3l1,0.6l1.1-2l0.6,0.4l-1.1,2l1,0.6l1.3-2.3l0.6,0.3L181.3,81
						z M177.8,78.7l3.4,1.9l1.5-2.5l-0.2-0.1l-1.3,2.3l-1.4-0.8l1.1-2l-0.2-0.1l-1.1,2l-1.4-0.8l1.3-2.3l-0.2-0.1L177.8,78.7z"/>
				</g>
			</g>
		</g>
	</g>
</g>
<g>
	<g>
		<path class="st2" d="M179.5,169.9c-5.6-5-10.4-10.8-14.3-17.3c-1.3-2.1-2.4-4.2-3.4-6.4c-4.4-9.1-6.8-18.8-7.3-28.9l25.6-1.3
			c0.3,6.6,2,13,4.8,19c0.7,1.4,1.4,2.9,2.3,4.2c2.6,4.3,5.8,8.1,9.5,11.4L179.5,169.9z"/>
		<path class="st16" d="M179.6,171.3l-0.7-0.7c-5.7-5.1-10.6-11-14.5-17.6c-1.3-2.1-2.4-4.3-3.5-6.5c-4.4-9.2-6.9-19.1-7.5-29.3
			l-0.1-0.9l27.6-1.4l0.1,0.9c0.3,6.5,1.9,12.8,4.8,18.6c0.7,1.4,1.4,2.8,2.3,4.1c2.5,4.2,5.6,8,9.2,11.2l0.7,0.7L179.6,171.3z
			 M155.4,118.3c0.7,9.6,3,18.8,7.2,27.6c1,2.2,2.2,4.3,3.4,6.3c3.6,6.1,8.2,11.6,13.4,16.4l15.8-17.7c-3.4-3.2-6.5-6.9-8.9-11
			c-0.8-1.4-1.6-2.9-2.4-4.3c-2.7-5.8-4.5-12-4.9-18.4L155.4,118.3z"/>
	</g>
	<g>
		<g>
			<g>
				<g>
					<path class="st10" d="M176,140l0.2,0.4l-3.9,1.6l-0.7-1.7c-0.3-0.7,0-1.4,0.7-1.7s1.2,0,1.5,0.4l1.2-1.6l0.2,0.5l-1.1,1.4
						l0.5,1.2L176,140L176,140z M174.2,140.8l-0.5-1.2c-0.2-0.4-0.5-0.8-1.1-0.5c-0.5,0.2-0.7,0.7-0.5,1.2l0.5,1.2L174.2,140.8z"/>
					<path class="st10" d="M176.4,140.5l-4.1,1.7l-0.7-1.8c-0.3-0.8,0-1.5,0.8-1.8c0.6-0.2,1.1-0.1,1.5,0.3l1.2-1.6l0.3,0.7
						l-1.1,1.4l0.4,1l1.5-0.6L176.4,140.5z M172.5,141.8l3.7-1.5l-0.1-0.2l-1.5,0.6l-0.6-1.4l1.1-1.4l-0.1-0.2l-1.1,1.5l-0.1-0.2
						c-0.3-0.5-0.8-0.5-1.3-0.3c-0.6,0.3-1,0.8-0.6,1.6L172.5,141.8L172.5,141.8z M174.3,140.8l-1.8,0.7l-0.5-1.3
						c-0.2-0.6,0-1.1,0.5-1.3c0.6-0.3,1,0.1,1.2,0.6L174.3,140.8z M172.7,141.3l1.3-0.5l-0.5-1.1c-0.1-0.2-0.4-0.7-1-0.5
						c-0.5,0.2-0.5,0.5-0.3,1L172.7,141.3z"/>
				</g>
				<g>
					<path class="st10" d="M171.1,137.9l1.3-0.5l-0.8-1.9l0.5-0.2l0.8,1.9l1.3-0.5l-0.9-2.2l0.5-0.2l1.1,2.6l-3.9,1.6l-1.1-2.6
						l0.5-0.2L171.1,137.9L171.1,137.9z"/>
					<path class="st10" d="M174.9,136.9l-4.1,1.7l-1.2-2.8l0.6-0.3l0.9,2.2l1.1-0.5l-0.8-1.9l0.6-0.3l0.8,1.9l1.1-0.5l-0.9-2.2
						l0.6-0.3L174.9,136.9L174.9,136.9z M171,138.3l3.7-1.5l-1-2.4l-0.2,0.1l0.9,2.2l-1.5,0.6l-0.8-1.9l-0.2,0.1l0.8,1.9l-1.5,0.6
						l-0.9-2.2l-0.4,0.2L171,138.3z"/>
				</g>
				<g>
					<path class="st10" d="M171.2,131.4c0.7-0.3,1.3,0.1,1.7,0.9c0.4,1,0.1,1.7-0.6,2l-0.2-0.4c0.6-0.2,0.6-0.9,0.4-1.5
						s-0.6-0.8-1-0.7c-0.9,0.4,0.5,2.6-0.7,3.1c-0.6,0.3-1.3,0-1.6-0.8c-0.4-0.9,0-1.6,0.5-1.8l0.2,0.4c-0.4,0.2-0.6,0.7-0.3,1.3
						c0.3,0.8,0.8,0.8,1,0.7C171.3,134.3,169.8,132,171.2,131.4z"/>
					<path class="st10" d="M172.3,134.5l-0.3-0.6h0.1c0.6-0.2,0.4-0.9,0.2-1.3c-0.2-0.4-0.4-0.8-0.9-0.6c-0.4,0.2-0.3,0.6-0.2,1.3
						s0.2,1.6-0.6,2c-0.7,0.3-1.4-0.1-1.8-0.9c-0.4-1,0-1.7,0.6-2h0.1l0.3,0.6h-0.1c-0.4,0.2-0.4,0.6-0.2,1.1
						c0.2,0.6,0.5,0.8,0.9,0.6c0.3-0.1,0.2-0.5,0.2-1.2c-0.1-0.7-0.2-1.6,0.6-2c0.7-0.3,1.4,0.1,1.8,1c0.5,1.3-0.1,1.9-0.6,2.2
						L172.3,134.5z M172.3,134l0.1,0.2c0.6-0.4,0.8-1,0.4-1.8s-0.9-1.1-1.6-0.9c-0.6,0.3-0.6,1-0.5,1.7c0,0.6,0.2,1.2-0.3,1.4
						c-0.2,0.1-0.8,0.2-1.2-0.7c-0.2-0.6-0.1-1.1,0.3-1.4l-0.1-0.2c-0.4,0.3-0.7,0.8-0.4,1.7c0.3,0.7,0.9,1,1.4,0.8
						c0.6-0.3,0.6-1,0.5-1.7c0-0.6-0.2-1.2,0.4-1.5c0.5-0.2,1,0,1.3,0.8C172.9,133.2,172.9,133.7,172.3,134z"/>
				</g>
				<g>
					<path class="st10" d="M167.6,129.3l0.5,1.2l3.4-1.4l0.2,0.4l-3.4,1.4l0.5,1.2l-0.5,0.2l-1.2-2.9L167.6,129.3L167.6,129.3z"/>
					<path class="st10" d="M168.9,132.3l-0.6,0.3l-1.3-3.1l0.6-0.3l0.5,1.2l3.4-1.4l0.3,0.6l-3.4,1.4L168.9,132.3z M168.4,132.1
						l0.2-0.1l-0.5-1.2l3.4-1.4l-0.1-0.2l-3.4,1.4l-0.5-1.2l-0.2,0.1L168.4,132.1z"/>
				</g>
			</g>
		</g>
		<g>
			<g>
				<path class="st10" d="M179.7,154.2c-0.1-0.2-0.2-0.3-0.6-0.3c-0.2,0-0.5,0-0.9,0.2l-1.6,0.7c-0.4,0.2-0.7,0.2-0.9,0.1
					c-0.3-0.1-0.5-0.3-0.6-0.6l-0.2-0.6l0.6-0.3l0.1,0.2c0.1,0.2,0.2,0.2,0.3,0.3s0.3,0,0.5-0.1l1.6-0.7c0.2-0.1,0.5-0.2,0.6-0.1
					c0.2,0,0.3,0,0.4,0c0.1,0.1,0.3,0.1,0.4,0.2c0.1,0.1,0.2,0.1,0.2,0.2l0,0c0-0.1,0-0.2,0-0.3c0.1-0.1,0-0.2,0.2-0.4
					c0.1-0.1,0.2-0.2,0.3-0.3c0.1-0.2,0.3-0.2,0.6-0.4l1.6-0.7c0.2-0.1,0.4-0.2,0.5-0.3s0.1-0.3,0-0.4l-0.1-0.2l0.6-0.3l0.2,0.6
					c0.1,0.3,0.1,0.6,0,0.9c-0.1,0.3-0.3,0.5-0.7,0.6l-1.6,0.7c-0.4,0.2-0.6,0.4-0.8,0.5c-0.1,0.2-0.3,0.4-0.2,0.6L179.7,154.2z"/>
				<path class="st10" d="M179.7,151.1l-1,0.4l-0.4-1l1.1-0.5L179.7,151.1L179.7,151.1z M182.1,150l-1.1,0.5l-0.4-1l1.1-0.5
					L182.1,150z"/>
				<path class="st10" d="M181.5,148.4l-8.1,1.8l-0.3-0.8l8.1-1.8L181.5,148.4z"/>
				<path class="st10" d="M180.5,146.1l-8.1,1.8l-0.3-0.8l8.1-1.8L180.5,146.1z"/>
				<path class="st10" d="M175.7,142.8c0.1,0.2,0.2,0.3,0.6,0.3c0.3,0,0.6,0,0.9-0.2l1.6-0.7c0.4-0.2,0.7-0.2,0.9-0.1
					s0.5,0.3,0.6,0.6l0.2,0.6l-0.6,0.3l-0.1-0.2c-0.1-0.2-0.2-0.2-0.3-0.3s-0.3,0-0.6,0.1l-1.6,0.7c-0.3,0.1-0.5,0.2-0.7,0.2
					s-0.3,0-0.4,0c-0.1-0.1-0.3-0.1-0.4-0.1c-0.1-0.1-0.2-0.1-0.2-0.2l0,0c0,0.1,0,0.2,0,0.3c-0.1,0.1,0,0.2-0.2,0.3
					c-0.1,0.1-0.2,0.2-0.3,0.3c-0.1,0.2-0.3,0.2-0.5,0.3l-1.6,0.7c-0.2,0.1-0.4,0.2-0.4,0.3c-0.1,0.1-0.1,0.3,0,0.4l0.1,0.2L172,147
					l-0.2-0.6c-0.1-0.3-0.1-0.6,0-0.9c0.1-0.3,0.3-0.5,0.7-0.6l1.6-0.7c0.4-0.2,0.6-0.4,0.8-0.5s0.3-0.4,0.2-0.6
					C175,143.2,175.7,142.8,175.7,142.8z"/>
			</g>
		</g>
	</g>
</g>
<g>
	<path class="st1" d="M56.8,90.8H40.6c-0.9,0-1.6-0.7-1.6-1.6V62.9c0-0.9,0.7-1.6,1.6-1.6h16.2c0.9,0,1.6,0.7,1.6,1.6v26.3
		C58.5,90.1,57.7,90.8,56.8,90.8z"/>
	<line class="st1" x1="39" y1="65.9" x2="58.6" y2="65.9"/>
	<line class="st1" x1="39" y1="85.7" x2="58.6" y2="85.7"/>
	<line class="st1" x1="46.5" y1="88.1" x2="51" y2="88.1"/>
	
		<linearGradient id="SVGID_2_" gradientUnits="userSpaceOnUse" x1="37.194" y1="161.9719" x2="60.2537" y2="148.6583" gradientTransform="matrix(1 0 0 -1 0 231)">
		<stop  offset="0" style="stop-color:#0D9B76"/>
		<stop  offset="0.1047" style="stop-color:#1F948D"/>
		<stop  offset="0.3206" style="stop-color:#3F87B6"/>
		<stop  offset="0.4907" style="stop-color:#537FD0"/>
		<stop  offset="0.5928" style="stop-color:#5A7CD9"/>
		<stop  offset="0.8652" style="stop-color:#30BBB6"/>
		<stop  offset="1" style="stop-color:#1ED5A7"/>
	</linearGradient>
	<rect x="39" y="65.9" class="st17" width="19.5" height="19.6"/>
</g>
<g>
	<g>
		<g>
			<path class="st2" d="M40.5,103.2h-0.6v-2.5c0-0.7-0.4-1.1-1-1.1s-1.1,0.4-1.1,1.2v2.5h-0.6v-4.1h0.6v0.6c0.2-0.3,0.6-0.7,1.2-0.7
				c0.5,0,1,0.3,1.3,0.8c0.2-0.3,0.6-0.8,1.4-0.8c0.8,0,1.5,0.7,1.5,1.7v2.5h-0.6v-2.5c0-0.7-0.4-1.1-1-1.1s-1.1,0.4-1.1,1.2
				C40.5,100.9,40.5,103.2,40.5,103.2z"/>
			<path class="st2" d="M43.3,103.3h-0.8v-2.6c0-0.6-0.4-1-0.9-1c-0.6,0-1,0.4-1,1.1v2.6h-0.8v-2.6c0-0.6-0.4-1-0.9-1
				c-0.6,0-1,0.4-1,1.1v2.6h-0.8v-4.3h0.8v0.4c0.2-0.2,0.6-0.5,1.1-0.5s1,0.3,1.3,0.7c0.2-0.3,0.6-0.7,1.4-0.7
				c0.8,0,1.6,0.6,1.6,1.8C43.3,100.9,43.3,103.3,43.3,103.3z M42.7,103.1h0.4v-2.4c0-1-0.7-1.6-1.4-1.6c-0.8,0-1.1,0.5-1.3,0.8
				l-0.1,0.2l-0.1-0.2c-0.2-0.5-0.7-0.8-1.2-0.8c-0.7,0-1,0.4-1.1,0.6l-0.2,0.3v-0.9h-0.4v3.9h0.4v-2.4c0-0.7,0.5-1.3,1.2-1.3
				c0.6,0,1.1,0.5,1.1,1.3v2.4h0.4v-2.4c0-0.7,0.5-1.3,1.2-1.3c0.6,0,1.1,0.5,1.1,1.3C42.7,100.6,42.7,103.1,42.7,103.1z"/>
		</g>
		<g>
			<path class="st2" d="M47.8,101.1c0,1.2-0.8,2.1-2,2.1s-2-0.9-2-2.1s0.8-2.1,2-2.1S47.8,100,47.8,101.1z M47.2,101.1
				c0-0.8-0.5-1.6-1.4-1.6s-1.4,0.7-1.4,1.6c0,0.8,0.5,1.6,1.4,1.6S47.2,102,47.2,101.1z"/>
			<path class="st2" d="M45.9,103.4c-1.2,0-2.1-0.9-2.1-2.2c0-1.3,0.9-2.2,2.1-2.2s2.1,0.9,2.1,2.2
				C47.9,102.5,47.1,103.4,45.9,103.4z M45.9,99.1c-1.1,0-1.9,0.8-1.9,2s0.8,2,1.9,2s1.9-0.8,1.9-2C47.7,100,47,99.1,45.9,99.1z
				 M45.9,102.8c-0.9,0-1.5-0.7-1.5-1.7s0.6-1.7,1.5-1.7s1.5,0.7,1.5,1.7C47.3,102.1,46.7,102.8,45.9,102.8z M45.9,99.7
				c-0.9,0-1.3,0.7-1.3,1.5c0,0.7,0.4,1.5,1.3,1.5c0.9,0,1.3-0.7,1.3-1.5C47.1,100.4,46.7,99.7,45.9,99.7z"/>
		</g>
		<g>
			<path class="st2" d="M52.6,101.1c0,1.2-0.8,2.1-1.9,2.1c-0.7,0-1.1-0.3-1.4-0.7v0.7h-0.7v-5.7h0.6v2.3c0.3-0.4,0.8-0.7,1.4-0.7
				C51.8,99,52.6,100,52.6,101.1z M52,101.1c0-0.8-0.5-1.6-1.4-1.6s-1.4,0.7-1.4,1.6c0,0.8,0.5,1.6,1.4,1.6S52,102,52,101.1z"/>
			<path class="st2" d="M50.6,103.4c-0.5,0-1-0.2-1.3-0.5v0.5h-0.8v-6h0.8v2.1c0.3-0.4,0.8-0.5,1.3-0.5c1.2,0,2,0.9,2,2.2
				C52.7,102.4,51.8,103.4,50.6,103.4z M49.1,102.2l0.2,0.3c0.3,0.4,0.7,0.7,1.3,0.7c1.1,0,1.8-0.8,1.8-2s-0.8-2-1.8-2
				c-0.6,0-1,0.2-1.3,0.7l-0.2,0.3v-2.6h-0.4v5.5h0.4V102.2z M50.6,102.8c-0.9,0-1.5-0.7-1.5-1.7s0.6-1.7,1.5-1.7s1.5,0.7,1.5,1.7
				S51.4,102.8,50.6,102.8z M50.6,99.7c-0.9,0-1.3,0.7-1.3,1.5c0,0.7,0.4,1.5,1.3,1.5c0.9,0,1.3-0.8,1.3-1.5
				C51.9,100.4,51.5,99.7,50.6,99.7z"/>
		</g>
		<g>
			<path class="st2" d="M54,97.6v0.8h-0.6v-0.8H54z M53.3,99.1h0.6v4.1h-0.6V99.1z"/>
			<path class="st2" d="M54,103.3h-0.8V99H54V103.3z M53.4,103.1h0.4v-3.9h-0.4V103.1z M54.1,98.5h-0.8v-1h0.8V98.5z M53.4,98.3h0.4
				v-0.6h-0.4V98.3z"/>
		</g>
		<g>
			<path class="st2" d="M55.6,103.2H55v-5.7h0.6V103.2z"/>
			<path class="st2" d="M55.7,103.3h-0.8v-6h0.8V103.3z M55.1,103.1h0.4v-5.5h-0.4V103.1z"/>
		</g>
		<g>
			<path class="st2" d="M59.5,102h0.7c-0.3,0.7-0.9,1.2-1.8,1.2c-1.2,0-2-0.9-2-2.1s0.8-2.1,2-2.1s2,0.9,2,2.1v0.2h-3.3
				c0.1,0.7,0.6,1.3,1.4,1.3C58.9,102.7,59.3,102.4,59.5,102z M57,100.8h2.7c-0.1-0.7-0.6-1.2-1.4-1.2S57.1,100.1,57,100.8z"/>
			<path class="st2" d="M58.4,103.4c-1.2,0-2.1-0.9-2.1-2.2c0-1.3,0.9-2.2,2.1-2.2s2.1,0.9,2.1,2.2v0.3h-3.3
				c0.1,0.7,0.6,1.1,1.3,1.1c0.6,0,0.9-0.3,1.1-0.6v-0.1h0.9l-0.1,0.1C59.9,102.9,59.3,103.4,58.4,103.4z M58.3,99.1
				c-1.1,0-1.9,0.8-1.9,2s0.8,2,1.9,2c1,0,1.4-0.5,1.7-1h-0.4c-0.3,0.4-0.7,0.7-1.2,0.7c-0.8,0-1.4-0.6-1.5-1.4v-0.1h3.3v-0.1
				C60.2,100,59.4,99.1,58.3,99.1z M59.8,100.9h-2.9v-0.1c0.1-0.8,0.7-1.3,1.4-1.3C59.1,99.5,59.6,100,59.8,100.9L59.8,100.9z
				 M57.1,100.7h2.4c-0.1-0.6-0.6-1-1.2-1S57.2,100.1,57.1,100.7z"/>
		</g>
	</g>
</g>
<g>
	
		<linearGradient id="SVGID_3_" gradientUnits="userSpaceOnUse" x1="30.3331" y1="91.933" x2="67.1496" y2="70.677" gradientTransform="matrix(1 0 0 -1 0 231)">
		<stop  offset="0" style="stop-color:#0D9B76"/>
		<stop  offset="0.1047" style="stop-color:#1F948D"/>
		<stop  offset="0.3206" style="stop-color:#3F87B6"/>
		<stop  offset="0.4907" style="stop-color:#537FD0"/>
		<stop  offset="0.5928" style="stop-color:#5A7CD9"/>
		<stop  offset="0.8652" style="stop-color:#30BBB6"/>
		<stop  offset="1" style="stop-color:#1ED5A7"/>
	</linearGradient>
	<path class="st18" d="M66.6,160.7H30.9c-0.3,0-0.6-0.2-0.6-0.6v-20.8c0-0.3,0.2-0.6,0.6-0.6h35.7c0.3,0,0.6,0.2,0.6,0.6v20.8
		C67.2,160.4,66.9,160.7,66.6,160.7z"/>
	<path class="st19" d="M67.4,162H30.1c-0.6,0-1.2-0.5-1.2-1.2v-22.3c0-0.6,0.5-1.2,1.2-1.2h37.4c0.6,0,1.2,0.5,1.2,1.2v22.3
		C68.6,161.5,68.1,162,67.4,162z"/>
	<path class="st1" d="M69.3,166.7H28.2c-0.6,0-1.1-0.5-1.1-1.1v-1c0-0.3,0.2-0.6,0.6-0.6h42.2c0.3,0,0.6,0.2,0.6,0.6v1
		C70.4,166.2,69.9,166.7,69.3,166.7z"/>
</g>
<g>
	<g>
		<g>
			<path class="st2" d="M44.2,173.2l-1,3.3h-0.7l-1.2-4.1h0.6l1,3.3l1-3.3h0.7l1,3.3l1-3.3h0.6l-1.2,4.1h-0.7L44.2,173.2z"/>
			<path class="st2" d="M46,176.5h-0.8l-0.9-3l-0.9,3h-0.8l-1.3-4.3h0.9l0.9,3.1l0.9-3.1h0.8l0.9,3.1l0.9-3.1h0.7L46,176.5z
				 M45.3,176.3h0.5l1.2-3.9h-0.4l-1,3.6l-1.1-3.6H44l-1.1,3.6l-1-3.6h-0.4l1.2,3.9h0.5l1.1-3.5L45.3,176.3z"/>
		</g>
		<g>
			<path class="st2" d="M50.6,175.3h0.7c-0.3,0.7-0.9,1.2-1.8,1.2c-1.2,0-2-0.9-2-2.1s0.8-2.1,2-2.1s2,0.9,2,2.1v0.2h-3.3
				c0.1,0.7,0.6,1.3,1.4,1.3C50,175.9,50.4,175.7,50.6,175.3z M48.1,174.1h2.7c-0.1-0.7-0.6-1.2-1.3-1.2S48.2,173.4,48.1,174.1z"/>
			<path class="st2" d="M49.5,176.6c-1.2,0-2.1-0.9-2.1-2.2s0.9-2.2,2.1-2.2s2.1,0.9,2.1,2.2v0.3h-3.3c0.1,0.7,0.6,1.1,1.3,1.1
				c0.6,0,0.9-0.3,1.1-0.6v-0.1h0.9l-0.1,0.1C51.1,176.1,50.4,176.6,49.5,176.6z M49.4,172.4c-1.1,0-1.9,0.8-1.9,2s0.8,2,1.9,2
				c1,0,1.4-0.5,1.7-1h-0.4c-0.3,0.4-0.7,0.7-1.2,0.7c-0.8,0-1.4-0.6-1.5-1.4v-0.1h3.3v-0.1C51.3,173.2,50.5,172.4,49.4,172.4z
				 M50.9,174.2H48v-0.1c0.1-0.8,0.7-1.3,1.4-1.3C50.2,172.8,50.7,173.3,50.9,174.2L50.9,174.2z M48.2,174h2.4c-0.1-0.6-0.6-1-1.2-1
				C48.8,172.9,48.4,173.3,48.2,174z"/>
		</g>
		<g>
			<path class="st2" d="M56.1,174.4c0,1.2-0.8,2.1-1.9,2.1c-0.7,0-1.1-0.3-1.4-0.7v0.7h-0.6v-5.7h0.6v2.3c0.3-0.4,0.8-0.7,1.4-0.7
				C55.3,172.3,56.1,173.2,56.1,174.4z M55.5,174.4c0-0.8-0.5-1.6-1.4-1.6s-1.4,0.7-1.4,1.6c0,0.8,0.5,1.6,1.4,1.6
				S55.5,175.2,55.5,174.4z"/>
			<path class="st2" d="M54.2,176.6c-0.5,0-1-0.2-1.3-0.5v0.5h-0.8v-6h0.8v2.1c0.3-0.4,0.8-0.5,1.3-0.5c1.2,0,2,0.9,2,2.2
				C56.2,175.7,55.3,176.6,54.2,176.6z M52.6,175.4l0.2,0.3c0.3,0.4,0.7,0.7,1.3,0.7c1.1,0,1.8-0.8,1.8-2s-0.8-2-1.8-2
				c-0.6,0-1,0.2-1.3,0.7l-0.2,0.3v-2.5h-0.4v5.5h0.4V175.4z M54.1,176c-0.9,0-1.5-0.7-1.5-1.7s0.6-1.7,1.5-1.7s1.5,0.7,1.5,1.7
				S54.9,176,54.1,176z M54.1,172.9c-0.9,0-1.3,0.7-1.3,1.5s0.4,1.5,1.3,1.5c0.9,0,1.3-0.8,1.3-1.5S55,172.9,54.1,172.9z"/>
		</g>
	</g>
</g>
<linearGradient id="SVGID_4_" gradientUnits="userSpaceOnUse" x1="245.1048" y1="1314.6934" x2="253.0952" y2="1319.3066" gradientTransform="matrix(1 0 0 1 0 -1204)">
	<stop  offset="0" style="stop-color:#5A7CD9"/>
	<stop  offset="0.2819" style="stop-color:#4799C9"/>
	<stop  offset="0.7579" style="stop-color:#29C4B0"/>
	<stop  offset="1" style="stop-color:#1ED5A7"/>
</linearGradient>
<circle class="st20" cx="249.1" cy="113" r="4.6"/>
<g>
	<g>
		<g>
			<g>
				<polygon class="st2" points="203.3,120.5 203.3,117.7 215.2,104.3 203.5,104.3 203.5,101 220.1,101 220.1,104 208.2,117.3
					220.1,117.3 220.1,120.5 				"/>
			</g>
			<g>
				<path class="st2" d="M222.1,120.5v-15.1h3.6v15.1H222.1z M222.1,104.5V101h3.7v3.4L222.1,104.5L222.1,104.5z"/>
			</g>
			<g>
				<rect x="228.8" y="100" class="st2" width="3.6" height="20.5"/>
			</g>
			<g>
				<rect x="235.4" y="100" class="st2" width="3.6" height="20.5"/>
			</g>
			<g>
				<path class="st2" d="M248.9,120.8c-4.5,0-7.8-3.3-7.8-7.8s3.3-7.8,7.8-7.8c1.8,0,3.4,0.5,4.6,1.4v-1.2h3.6v15.1h-3.6v-1.2
					C252.3,120.3,250.7,120.8,248.9,120.8z M249.2,108.5c-2.2,0-4.5,1.4-4.5,4.5s2.3,4.5,4.5,4.5c3,0,4.4-2.3,4.4-4.5
					C253.6,110.8,252.2,108.5,249.2,108.5z"/>
			</g>
		</g>
	</g>
	<polygon class="st2" points="257,125.8 200.6,125.8 203,123.3 259.4,123.3 	"/>
</g>
<g>
	<g>
		<path d="M414.8,112.2h0.9c-0.5,1.3-1.7,2.3-3.3,2.3c-2.2,0-3.5-1.7-3.5-3.7s1.3-3.7,3.5-3.7c1.7,0,2.8,0.9,3.3,2.3h-0.9
			c-0.4-0.9-1.2-1.5-2.4-1.5c-1.8,0-2.8,1.3-2.8,2.9s1,2.9,2.8,2.9C413.6,113.7,414.4,113.1,414.8,112.2z"/>
		<path d="M424.3,115.5c-0.5,0.4-1.1,0.6-1.8,0.6c-1.1,0-2.1-0.7-2.6-1.7c-2.1-0.1-3.5-1.7-3.5-3.7c0-2.1,1.5-3.7,3.7-3.7
			s3.7,1.7,3.7,3.7c0,1.8-1.2,3.4-3,3.7c0.2,0.4,0.7,1,1.8,1c0.5,0,0.9-0.2,1.3-0.5L424.3,115.5z M423,110.8c0-1.6-1.1-2.9-2.9-2.9
			s-2.9,1.3-2.9,2.9s1.1,2.9,2.9,2.9C421.9,113.7,423,112.4,423,110.8z"/>
		<path d="M426,114.4h-0.8v-7.3h3.5c1.5,0,2.5,0.9,2.5,2.3s-0.9,1.9-1.8,2.1l1.9,2.9h-1l-1.8-2.8H426V114.4z M426,110.8h2.5
			c0.8,0,1.8-0.3,1.8-1.4c0-0.9-0.7-1.5-1.7-1.5H426V110.8z"/>
		<path d="M438,112.4c0,1.4-1.1,2.1-2.9,2.1c-2.2,0-3-1-3.1-2.3h0.9c0.1,1.1,1.1,1.5,2.3,1.5c1.2,0,2-0.4,2-1.3c0-1.8-5-0.9-5-3.4
			c0-1.2,0.9-2,2.7-2c1.9,0,2.8,1,2.9,2.1H437c-0.1-0.7-0.7-1.3-2-1.3c-1.7,0-1.9,0.7-1.9,1.2C433,110.7,438,109.8,438,112.4z"/>
	</g>
</g>
<g>
	<g>
		<line class="st1" x1="382.6" y1="114" x2="359.4" y2="114"/>
		<g>
			<polygon class="st2" points="381.8,111.3 386.6,114 381.8,116.7 			"/>
		</g>
		<g>
			<polygon class="st2" points="360.2,111.3 355.4,114 360.2,116.7 			"/>
		</g>
	</g>
</g>
<g>
	<g>
		<path class="st21" d="M419.1,189.3c-0.3,0-0.5,0.2-0.5,0.4v2.3c-1.1-0.9-2.7-0.7-3.6,0.4c-0.4,0.5-0.6,1-0.6,1.6
			c0,1.4,1.1,2.5,2.5,2.6s2.5-1.1,2.6-2.5v-4.3c0-0.1,0-0.2-0.1-0.3C419.4,189.4,419.3,189.3,419.1,189.3 M418.5,194.6
			c-0.2,0.4-0.5,0.7-0.8,0.8c-0.4,0.2-0.8,0.2-1.2,0c-0.4-0.2-0.7-0.5-0.8-0.8c-0.2-0.4-0.2-0.8,0-1.2s0.5-0.7,0.8-0.8
			c0.4-0.2,0.8-0.2,1.2,0c0.4,0.2,0.7,0.5,0.8,0.8C418.7,193.8,418.7,194.2,418.5,194.6 M424.4,192.2c-1-1-2.6-1-3.6,0
			c-0.5,0.5-0.7,1.1-0.7,1.8c0,1.4,1.1,2.5,2.5,2.6s2.5-1.1,2.6-2.5V194c0-0.3-0.1-0.7-0.2-1S424.6,192.5,424.4,192.2 M424.1,194.6
			c-0.1,0.2-0.2,0.4-0.3,0.5s-0.3,0.3-0.5,0.3c-0.4,0.2-0.8,0.2-1.2,0c-0.4-0.2-0.7-0.5-0.8-0.8c-0.2-0.4-0.2-0.8,0-1.2
			s0.5-0.7,0.8-0.8c0.4-0.2,0.8-0.2,1.2,0c0.2,0.1,0.4,0.2,0.5,0.3s0.3,0.3,0.3,0.5C424.2,193.8,424.2,194.2,424.1,194.6 M434.9,192
			c0-0.1,0-0.1,0-0.2s-0.1-0.1-0.1-0.2c0,0-0.1-0.1-0.2-0.1s-0.1,0-0.2,0s-0.2,0-0.3,0.1l-2.7,1.8v-3.5c0-0.1,0-0.2-0.1-0.3
			s-0.2-0.1-0.3-0.1c-0.3,0-0.5,0.2-0.5,0.5v6.3c0,0.1,0,0.2,0.1,0.3s0.2,0.1,0.3,0.1c0.1,0,0.2,0,0.3-0.1c0.1-0.1,0.1-0.2,0.1-0.3
			v-1.6l0.5-0.4l2.1,2.3c0.1,0.1,0.2,0.1,0.3,0.1c0.1,0,0.1,0,0.2,0s0.1-0.1,0.2-0.1c0,0,0.1-0.1,0.1-0.2c0-0.1,0-0.1,0-0.2
			c0-0.1,0-0.2-0.1-0.3l-1.9-2.2l1.9-1.2C434.8,192.2,434.9,192.1,434.9,192 M427,192.9c0.1-0.1,0.3-0.3,0.5-0.3
			c0.2-0.1,0.4-0.1,0.6-0.1s0.4,0,0.5,0.1c0.2,0.1,0.3,0.2,0.5,0.3c0.1,0.1,0.2,0.1,0.3,0.1c0.1,0,0.3,0,0.3-0.1
			c0.1-0.1,0.1-0.2,0.1-0.3s-0.1-0.3-0.2-0.4c-0.5-0.4-1-0.6-1.7-0.6c-1.4,0-2.5,1.1-2.5,2.5s1.1,2.5,2.5,2.5c0.6,0,1.2-0.2,1.7-0.6
			c0.1-0.1,0.2-0.2,0.2-0.3c0-0.3-0.2-0.5-0.4-0.5l0,0c-0.1,0-0.2,0-0.3,0.1c-0.1,0.1-0.3,0.2-0.5,0.3s-0.4,0.1-0.5,0.1
			c-0.2,0-0.4,0-0.6-0.1s-0.4-0.2-0.5-0.3C426.4,194.5,426.4,193.5,427,192.9L427,192.9 M444.2,191.8c-0.1-0.1-0.2-0.2-0.3-0.2
			c-0.1,0-0.3-0.1-0.4-0.1s-0.3,0-0.4,0c-0.3,0-0.6,0-0.8,0.2c-0.3,0.1-0.5,0.2-0.7,0.4V192c0-0.3-0.2-0.5-0.5-0.5
			c-0.2,0-0.4,0.2-0.5,0.5v4.1c0,0.3,0.2,0.5,0.5,0.5c0.2,0,0.4-0.2,0.5-0.5V194c0-0.2,0-0.4,0.1-0.6c0.1-0.2,0.2-0.4,0.3-0.5
			c0.1-0.1,0.3-0.3,0.5-0.3c0.2-0.1,0.4-0.1,0.6-0.1s0.4,0,0.6,0.1c0.1,0,0.1,0,0.2,0s0.1,0,0.2,0s0.1-0.1,0.2-0.1
			c0,0,0.1-0.1,0.1-0.2c0-0.1,0-0.1,0-0.2C444.4,192,444.3,191.9,444.2,191.8 M439.8,193c-0.4-0.9-1.3-1.5-2.3-1.6
			c-1.4,0-2.5,1.1-2.5,2.5s1.1,2.5,2.5,2.5c0.6,0,1.2-0.2,1.7-0.6l0,0l0.1-0.1c0.2-0.2,0.1-0.5-0.1-0.7c-0.2-0.1-0.4-0.1-0.6,0.1
			l-0.1,0.1l0,0c-0.1,0.1-0.3,0.2-0.5,0.3s-0.4,0.1-0.5,0.1c-0.2,0-0.3,0-0.5-0.1s-0.3-0.1-0.4-0.2c-0.1-0.1-0.3-0.2-0.3-0.3
			c-0.1-0.1-0.2-0.3-0.2-0.5h3.6c0.1,0,0.2,0,0.3-0.1c0.1-0.1,0.1-0.2,0.1-0.3C440,193.7,440,193.4,439.8,193 M436,193.6
			c0-0.2,0.1-0.3,0.2-0.5c0.1-0.1,0.2-0.3,0.3-0.3c0.1-0.1,0.3-0.2,0.4-0.2s0.3-0.1,0.5-0.1s0.3,0,0.5,0.1c0.3,0.1,0.6,0.3,0.8,0.6
			c0.1,0.1,0.2,0.3,0.2,0.5H436V193.6z M442.6,195.9c-0.2,0-0.3,0.2-0.3,0.3c0,0.2,0.2,0.3,0.3,0.3s0.3-0.2,0.3-0.3
			C442.9,196,442.8,195.9,442.6,195.9z M442.6,196.4c-0.1,0-0.3-0.1-0.3-0.2s0.1-0.3,0.2-0.3s0.3,0.1,0.3,0.2l0,0
			C442.9,196.3,442.8,196.4,442.6,196.4L442.6,196.4z"/>
		<path class="st21" d="M442.7,196.2C442.7,196.2,442.8,196.2,442.7,196.2c0.1-0.1,0.1-0.1,0-0.2h-0.1h-0.1v0.3h0.1v-0.1l0,0H442.7
			c0,0.1,0,0.1,0,0.2h0.1C442.7,196.3,442.7,196.3,442.7,196.2L442.7,196.2 M442.6,196.2L442.6,196.2L442.6,196.2L442.6,196.2
			C442.6,196.1,442.7,196.1,442.6,196.2C442.7,196.2,442.6,196.2,442.6,196.2 M413.7,190.4c0,0-0.5-0.4-1.4-0.4
			c-0.2,0-0.5,0-0.7,0.1c-0.2-1.2-1.2-1.8-1.2-1.8l-0.2-0.1l-0.2,0.2c-0.2,0.3-0.3,0.7-0.4,1c-0.2,0.7-0.1,1.3,0.3,1.9
			c-0.4,0.2-1.1,0.3-1.2,0.3h-11.3c-0.3,0-0.5,0.2-0.5,0.5c0,1,0.2,2,0.5,2.9c0.4,1,1,1.8,1.7,2.2c0.8,0.5,2.2,0.8,3.8,0.8
			c0.7,0,1.4-0.1,2.1-0.2c1-0.2,1.9-0.5,2.7-1c0.7-0.4,1.3-0.9,1.9-1.5c0.9-1,1.4-2.1,1.8-3.1h0.2c1,0,1.6-0.4,1.9-0.7
			c0.2-0.2,0.4-0.5,0.5-0.7l0.1-0.2L413.7,190.4z"/>
		<path class="st21" d="M398.3,191.2h1.5c0.1,0,0.1-0.1,0.1-0.1v-1.3c0-0.1-0.1-0.1-0.1-0.1h-1.5c-0.1,0-0.1,0.1-0.1,0.1v1.3
			C398.2,191.2,398.3,191.2,398.3,191.2z M400.4,191.2h1.5c0.1,0,0.1-0.1,0.1-0.1v-1.3c0-0.1-0.1-0.1-0.1-0.1h-1.5
			c-0.1,0-0.1,0.1-0.1,0.1v1.3C400.3,191.2,400.3,191.2,400.4,191.2 M402.5,191.2h1.5c0.1,0,0.1-0.1,0.1-0.1v-1.3
			c0-0.1-0.1-0.1-0.1-0.1h-1.5c-0.1,0-0.1,0.1-0.1,0.1v1.3C402.4,191.2,402.4,191.2,402.5,191.2z M404.6,191.2h1.5
			c0.1,0,0.1-0.1,0.1-0.1v-1.3c0-0.1-0.1-0.1-0.1-0.1h-1.5c-0.1,0-0.1,0.1-0.1,0.1v1.3C404.5,191.2,404.5,191.2,404.6,191.2z
			 M400.4,189.3h1.5c0.1,0,0.1-0.1,0.1-0.1v-1.3c0-0.1-0.1-0.1-0.1-0.1h-1.5c-0.1,0-0.1,0.1-0.1,0.1v1.3
			C400.3,189.2,400.3,189.3,400.4,189.3 M402.5,189.3h1.5c0.1,0,0.1-0.1,0.1-0.1v-1.3c0-0.1-0.1-0.1-0.1-0.1h-1.5
			c-0.1,0-0.1,0.1-0.1,0.1v1.3C402.4,189.2,402.4,189.3,402.5,189.3 M404.6,189.3h1.5c0.1,0,0.1-0.1,0.1-0.1v-1.3
			c0-0.1-0.1-0.1-0.1-0.1h-1.5c-0.1,0-0.1,0.1-0.1,0.1v1.3C404.5,189.2,404.5,189.3,404.6,189.3 M404.6,187.4h1.5
			c0.1,0,0.1-0.1,0.1-0.1V186c0-0.1-0.1-0.1-0.1-0.1h-1.5c-0.1,0-0.1,0.1-0.1,0.1v1.3C404.5,187.3,404.5,187.4,404.6,187.4
			 M406.7,191.2h1.5c0.1,0,0.1-0.1,0.1-0.1v-1.3c0-0.1-0.1-0.1-0.1-0.1h-1.5c-0.1,0-0.1,0.1-0.1,0.1v1.3
			C406.6,191.2,406.6,191.2,406.7,191.2"/>
	</g>
</g>
<polyline class="st22" points="75,149 96.8,149 96.8,148.9 96.8,113.9 96.8,114 96.8,79 75,79 "/>
<line class="st23" x1="137" y1="114" x2="97.8" y2="114"/>
<polyline class="st22" points="159.7,79 138,79 138,79.1 138,114.1 138,114 138,149 159.7,149 "/>
</svg>
