<?xml version="1.0" encoding="utf-8"?>
<!-- Generator: Adobe Illustrator 21.0.0, SVG Export Plug-In . SVG Version: 6.00 Build 0)  -->
<svg version="1.1" id="Layer_1" xmlns="http://www.w3.org/2000/svg" xmlns:xlink="http://www.w3.org/1999/xlink" x="0px" y="0px"
	 viewBox="0 0 4000 3000" style="enable-background:new 0 0 4000 3000;" xml:space="preserve">
<style type="text/css">
	.st0{fill:none;stroke:#0D9B76;stroke-width:18;stroke-miterlimit:10;}
	.st1{fill:none;stroke:#5A7CD9;stroke-width:18;stroke-miterlimit:10;}
	.st2{fill:none;stroke:#1BE2A9;stroke-width:18;stroke-miterlimit:10;}
	.st3{fill:#1B1E28;}
	.st4{fill:none;stroke:#FFFFFF;stroke-width:14.9602;stroke-miterlimit:10;}
	.st5{fill:none;stroke:#FFFFFF;stroke-width:11.2197;stroke-miterlimit:10;}
	.st6{display:none;fill:#3B424F;}
	.st7{fill:none;stroke:#5DB3F9;stroke-width:18;stroke-linecap:round;stroke-miterlimit:10;}
	.st8{fill:none;stroke:#0D9B76;stroke-width:18;stroke-linecap:round;stroke-miterlimit:10;}
	.st9{fill:none;stroke:#5A7CD9;stroke-width:18;stroke-linecap:round;stroke-miterlimit:10;}
	.st10{fill:none;stroke:#1ED5A7;stroke-width:18;stroke-linecap:round;stroke-miterlimit:10;}
	.st11{fill:#FFFFFF;stroke:url(#Zilla_Background_1_);stroke-width:41.7979;stroke-miterlimit:10;}
	.st12{fill:#1B1E28;stroke:#1B1E28;stroke-width:3.8963;stroke-linejoin:round;stroke-miterlimit:10;}
	.st13{fill:#1B1E28;stroke:#1B1E28;stroke-width:2.5975;stroke-miterlimit:10;}
	.st14{fill:url(#SVGID_1_);stroke:url(#SVGID_2_);stroke-width:3.4634;stroke-miterlimit:10;}
	.st15{fill:url(#Gradient_Eye_1_);stroke:#FCFCFC;stroke-width:13.8535;stroke-miterlimit:10;}
	.st16{fill:#C2CECE;stroke:#A2AAAA;stroke-width:22.6617;stroke-miterlimit:10;}
	.st17{fill:none;stroke:#7C8786;stroke-width:11.2457;stroke-miterlimit:10;}
	.st18{fill:#7C8786;}
	.st19{fill:none;stroke:#7C8786;stroke-width:12.7894;stroke-miterlimit:10;}
	.st20{fill:#5DB3F9;}
	.st21{display:none;fill:#FFFFFF;}
	.st22{fill:#FFFFFF;}
	.st23{fill:#FFFFFF;stroke:#FFFFFF;stroke-width:3.4634;stroke-miterlimit:10;}
	.st24{fill:#1B1E28;stroke:#5A7CD9;stroke-width:27.707;stroke-miterlimit:10;}
	.st25{fill:#FFFFFF;stroke:#FFFFFF;stroke-width:3;stroke-miterlimit:10;}
	.st26{fill:#1ED5A7;}
	.st27{fill:#FFFFFF;stroke:#FFFFFF;stroke-width:2.5975;stroke-miterlimit:10;}
	.st28{fill:#0D9B76;}
	.st29{fill:#FFFFFF;stroke:#FFFFFF;stroke-width:5.2215;stroke-miterlimit:10;}
	.st30{fill:#EAEFEF;stroke:#1B1E28;stroke-width:8.8039;stroke-miterlimit:10;}
	.st31{fill:#1B1E28;stroke:#1B1E28;stroke-width:8.8039;stroke-miterlimit:10;}
	.st32{fill:none;stroke:#1B1E28;stroke-width:8.8039;stroke-miterlimit:10;}
	.st33{fill:none;stroke:#1B1E28;stroke-width:4.2577;stroke-miterlimit:10;}
	.st34{fill:#FFFFFF;stroke:#1B1E28;stroke-width:8.8039;stroke-miterlimit:10;}
	.st35{fill:none;stroke:#1B1E28;stroke-width:8.1595;stroke-miterlimit:10;}
	.st36{fill:#FFFFFF;stroke:#1B1E28;stroke-width:9.628;stroke-linecap:round;stroke-miterlimit:10;}
	.st37{fill:#EAEFEF;stroke:#1B1E28;stroke-width:8.1595;stroke-miterlimit:10;}
	.st38{fill:none;stroke:#1B1E28;stroke-width:12;stroke-linecap:round;stroke-miterlimit:10;}
	.st39{fill:#FFFFFF;stroke:#1B1E28;stroke-width:8.1595;stroke-linecap:round;stroke-miterlimit:10;}
</style>
<g id="Flows">
	
		<image style="overflow:visible;opacity:0.65;" width="1172" height="2181" xlink:href="2679D146E71B2A74.png"  transform="matrix(1 0 0 1 2417.8591 412.8591)">
	</image>
	<g>
		<g>
			<line class="st0" x1="3521.7" y1="1503.5" x2="2480.5" y2="1503.5"/>
			<path class="st1" d="M2481.1,1503.1c436.6,58.4,723.7-98.9,723.7,539.8c0,357.3-125.9,446.6,321.7,480.1"/>
			<path class="st2" d="M2481.1,1503.1c438.4-55.7,715.2,95.7,715.2-541.3c0-356.3-117.5-445.4,330.2-478.8"/>
		</g>
	</g>
</g>
<g id="Kafka_Broker">
	<path class="st3" d="M3376,165.2h431.5v2641.1c0.6,3.2,0.9,6.5,0.9,9.7c0,57.6-96.8,104.3-216.2,104.3
		c-118,0-213.9-45.6-216.2-102.3c0-0.7,0-1.4,0-2V165.2z"/>
	<g>
		<g id="Kafka_logo_1_">
			<ellipse class="st4" cx="3545.4" cy="1503.8" rx="31.6" ry="31.8"/>
			<ellipse class="st4" cx="3545.4" cy="1601" rx="24.9" ry="25.1"/>
			<ellipse class="st4" cx="3545.4" cy="1405" rx="24.9" ry="25.1"/>
			<ellipse class="st4" cx="3630.1" cy="1457" rx="24.9" ry="25.1"/>
			<ellipse class="st4" cx="3630.1" cy="1550.7" rx="24.9" ry="25.1"/>
			<line class="st5" x1="3545.4" y1="1430.2" x2="3545.4" y2="1473.7"/>
			<line class="st5" x1="3545.4" y1="1532.3" x2="3545.4" y2="1582.6"/>
			<line class="st5" x1="3605.2" y1="1473.7" x2="3578.6" y2="1492.1"/>
			<line class="st5" x1="3611.8" y1="1539" x2="3575.3" y2="1517.2"/>
		</g>
	</g>
	<ellipse id="dark_tip" class="st3" cx="3592.2" cy="162" rx="216.2" ry="76.3"/>
	<ellipse class="st6" cx="3592.2" cy="162" rx="216.2" ry="76.3"/>
</g>
<g id="To_Client">
	
		<image style="overflow:visible;opacity:0.65;" width="1277" height="2443" xlink:href="2679D146E71B2A75.png"  transform="matrix(1 0 0 1 546.8591 276.8591)">
	</image>
	<g>
		<g>
			<path class="st7" d="M623.9,2648.2h574.5c368.5,0,429.8,10.2,554.5-114.4"/>
			<line class="st8" x1="1108" y1="1950.6" x2="617.9" y2="1950.6"/>
			<path class="st9" d="M632.9,347.9h565.5c368.5,0,429.8-10.2,554.5,114.4"/>
			<line class="st10" x1="1110.6" y1="1047.6" x2="617.9" y2="1047.6"/>
		</g>
	</g>
</g>
<g id="Zilla_Ring">
	<g id="Zilla">
		
			<linearGradient id="Zilla_Background_1_" gradientUnits="userSpaceOnUse" x1="1517.0347" y1="1458.0618" x2="2634.5464" y2="812.8658" gradientTransform="matrix(0.7071 -0.7071 -0.7071 -0.7071 1236.6661 3762.0667)">
			<stop  offset="0" style="stop-color:#0D9B76"/>
			<stop  offset="0.1047" style="stop-color:#1F948D"/>
			<stop  offset="0.3206" style="stop-color:#3F87B6"/>
			<stop  offset="0.4907" style="stop-color:#537FD0"/>
			<stop  offset="0.5928" style="stop-color:#5A7CD9"/>
			<stop  offset="0.8652" style="stop-color:#30BBB6"/>
			<stop  offset="1" style="stop-color:#1ED5A7"/>
		</linearGradient>
		
			<ellipse id="Zilla_Background" transform="matrix(0.7071 -0.7071 0.7071 0.7071 -497.5966 1781.4297)" class="st11" cx="1901.6" cy="1491.4" rx="624.2" ry="624.2"/>
		<g id="by_aklivity">
			
				<image style="overflow:visible;opacity:0.65;" width="518" height="204" xlink:href="2679D146E71B2A73.png"  transform="matrix(1 0 0 1 1824.1311 1562.1311)">
			</image>
			<g>
				<g>
					<path class="st12" d="M1926.4,1643.8v-9.8h9.7v60.4h-9.7v-9.7c-4.8,6.5-12.4,10.6-23.2,10.6c-19,0-31.4-13.9-31.4-31.2
						s12.4-31.2,31.4-31.2C1914,1633.1,1921.6,1637.3,1926.4,1643.8z M1926.9,1664.2c0-12.4-8-23-22.5-23c-14.4,0-23,10.5-23,23
						s8.6,23,23,23C1918.8,1687.2,1926.9,1676.7,1926.9,1664.2z"/>
					<path class="st12" d="M1984.2,1657.8l28,36.6h-12l-22.7-30.3l-12.1,11.2v19.1h-9.7v-84.6h9.7v54.2l31.2-30h13.7L1984.2,1657.8z
						"/>
					<path class="st12" d="M2033.1,1694.5h-9.7v-84.6h9.7V1694.5z"/>
					<path class="st12" d="M2062.7,1612v11.8h-10.5V1612H2062.7z M2052.6,1634h9.7v60.4h-9.7V1634z"/>
					<path class="st12" d="M2136.2,1634l-25.3,60.4h-11.4L2074,1634h10.6l20.5,50.8l20.4-50.8H2136.2z"/>
					<path class="st12" d="M2158,1612v11.8h-10.5V1612H2158z M2147.8,1634h9.7v60.4h-9.7V1634z"/>
					<path class="st12" d="M2184.1,1694.5V1642h-13.2v-8h13.2v-21.6h9.7v21.6h14.9v8h-14.9v52.5H2184.1z"/>
					<path class="st13" d="M2292.9,1638.6l-5-1.9l-37.1,81.3c-0.2,0.4-0.7,0.7-1.2,0.7h-11.2c-0.9,0-1.6-0.9-1.2-1.7l38.7-85.1
						l-5.6-2.2c-1-0.4-1.1-1.7-0.1-2.2l17.4-9c0.7-0.4,1.6,0,1.9,0.7l5.3,17.8C2295,1638.1,2294,1639,2292.9,1638.6z"/>
					
						<linearGradient id="SVGID_1_" gradientUnits="userSpaceOnUse" x1="2286.8892" y1="1618.9159" x2="2315.5459" y2="1618.9159" gradientTransform="matrix(1 0 0 1 -64.9956 38.9266)">
						<stop  offset="0.2394" style="stop-color:#0D9B76"/>
						<stop  offset="0.5271" style="stop-color:#11A580"/>
						<stop  offset="1" style="stop-color:#1CBF9A"/>
					</linearGradient>
					
						<linearGradient id="SVGID_2_" gradientUnits="userSpaceOnUse" x1="2285.1575" y1="1618.9159" x2="2317.2776" y2="1618.9159" gradientTransform="matrix(1 0 0 1 -64.9956 38.9266)">
						<stop  offset="0.2394" style="stop-color:#0D9B76"/>
						<stop  offset="0.5271" style="stop-color:#11A580"/>
						<stop  offset="1" style="stop-color:#1CBF9A"/>
					</linearGradient>
					<path class="st14" d="M2242.8,1681.7L2222,1635c-0.4-0.8,0.3-1.7,1.2-1.7h11.4c0.5,0,1,0.3,1.2,0.8l14.7,35.1
						c0.1,0.3,0.1,0.6,0,0.9l-5.3,11.6C2244.8,1682.6,2243.3,1682.6,2242.8,1681.7z"/>
				</g>
			</g>
		</g>
		<g id="Zilla_Logo">
			
				<linearGradient id="Gradient_Eye_1_" gradientUnits="userSpaceOnUse" x1="2197.0203" y1="1047.3358" x2="2294.459" y2="991.0808" gradientTransform="matrix(1 0 0 -1 -64.9956 2438.9265)">
				<stop  offset="0" style="stop-color:#5A7CD9"/>
				<stop  offset="0.2819" style="stop-color:#4799C9"/>
				<stop  offset="0.7579" style="stop-color:#29C4B0"/>
				<stop  offset="1" style="stop-color:#1ED5A7"/>
			</linearGradient>
			<circle id="Gradient_Eye" class="st15" cx="2180.7" cy="1419.7" r="56.1"/>
			<g id="Text_1_">
				<g id="Text">
					<g>
						<g>
							<path class="st3" d="M2178.3,1514.8c-54.9,0-95.1-40.2-95.1-95.1c0-54.9,40.2-95.1,95.1-95.1c22,0,41.5,6.1,56.1,17.1V1327
								h43.9v184.1h-43.9v-14.6C2219.8,1508.7,2200.3,1514.8,2178.3,1514.8z M2182,1364.8c-26.8,0-54.9,17.1-54.9,54.9
								c0,37.8,28,54.9,54.9,54.9c36.6,0,53.7-28,53.7-54.9C2235.6,1392.9,2218.5,1364.8,2182,1364.8z"/>
						</g>
						<g>
							<rect x="2013.7" y="1261.2" class="st3" width="43.9" height="250"/>
						</g>
						<g>
							<rect x="1933.2" y="1261.2" class="st3" width="43.9" height="250"/>
						</g>
						<g>
							<path class="st3" d="M1851.5,1511.2V1327h43.9v184.1H1851.5z M1851.5,1273.4h45.1v41.5l-45.1,0"/>
						</g>
						<g>
							<polygon class="st3" points="1622.2,1511.2 1622.2,1477 1767.4,1313.6 1624.7,1313.6 1660.5,1273.5 1827.1,1273.4 
								1827.1,1310 1682,1472.2 1842.8,1472.2 1808.1,1511.2 							"/>
						</g>
					</g>
				</g>
				<polygon id="Underline" class="st3" points="2277.1,1575.8 1591.2,1575.8 1618.6,1545.3 2304.4,1545.3 				"/>
			</g>
		</g>
	</g>
	<g id="APIs">
		<g id="GraphQL">
			<g>
				<path class="st16" d="M2345.5,2460.2c-64.9,30.4-132.9,53-202.2,68.6l-81.2-351.2c67.5-16.4,132.6-42.3,192.8-76.9
					c100.6-58.3,185.6-140.5,244.8-238.1l306.4,188.8c-91.8,148.4-218.8,273.1-371,361C2407.2,2429.5,2376.2,2446.4,2345.5,2460.2z"
					/>
			</g>
			<g id="GraphQl_logo_1_">
				<polygon class="st17" points="2653.9,2053.8 2579.7,1991.4 2488.5,2024.5 2471.6,2119.9 2545.8,2182.3 2637,2149.3 				"/>
				
					<ellipse transform="matrix(0.6436 -0.7654 0.7654 0.6436 -705.4044 2784.303)" class="st18" cx="2636.8" cy="2149.5" rx="21.9" ry="21.9"/>
				
					<ellipse transform="matrix(0.6436 -0.7654 0.7654 0.6436 -662.842 2626.4233)" class="st18" cx="2488.5" cy="2024.9" rx="21.9" ry="21.9"/>
				
					<ellipse transform="matrix(0.6436 -0.7654 0.7654 0.6436 -742.5986 2649.657)" class="st18" cx="2473.6" cy="2122.1" rx="21.9" ry="21.9"/>
				
					<ellipse transform="matrix(0.6436 -0.7654 0.7654 0.6436 -605.5712 2686.5979)" class="st18" cx="2581.8" cy="1993.5" rx="21.9" ry="21.9"/>
				
					<ellipse transform="matrix(0.6436 -0.7654 0.7654 0.6436 -763.8798 2728.5967)" class="st18" cx="2547.7" cy="2184.5" rx="21.9" ry="21.9"/>
				
					<ellipse transform="matrix(0.6436 -0.7654 0.7654 0.6436 -626.8524 2765.5376)" class="st18" cx="2655.9" cy="2055.8" rx="21.9" ry="21.9"/>
				<line class="st17" x1="2581.8" y1="1993.5" x2="2636.8" y2="2149.5"/>
				<line class="st19" x1="2583" y1="1993.4" x2="2474.9" y2="2122"/>
				<line class="st19" x1="2638" y1="2149.4" x2="2474.9" y2="2122"/>
			</g>
			<g id="GraphQL_Text">
				<path class="st18" d="M2430.3,2195.6l3.5,6.7l-24.3,12.8l-11.2-21.3c2.2-4.9,4.9-9.2,8-12.8c3.2-3.6,6.9-6.5,11.1-8.7
					c5.6-3,11.4-4.4,17.3-4.4c5.9,0,11.2,1.7,15.9,5s8.6,7.8,11.6,13.5c2.9,5.6,4.5,11.4,4.7,17.5c0.2,6.1-1.3,11.4-4.4,16.1
					s-7.6,8.5-13.3,11.5c-4.2,2.2-8.3,3.5-12.3,3.9c-4.1,0.4-7.7-0.1-10.8-1.5c-3.2-1.4-6.3-3.8-9.3-7.1l5.9-5.5
					c2.4,2.5,4.7,4.2,6.8,5.2c2.2,1,4.7,1.4,7.6,1.1c2.9-0.2,5.8-1.1,8.7-2.6c3.5-1.8,6.2-3.9,8.2-6.3c2-2.4,3.3-4.9,3.9-7.4
					c0.7-2.5,0.9-5.1,0.6-7.6c-0.4-4.3-1.7-8.6-3.9-12.7c-2.7-5.1-5.8-8.9-9.4-11.5c-3.6-2.5-7.5-3.7-11.7-3.6
					c-4.2,0.1-8.3,1.1-12.1,3.1c-3.3,1.7-6.2,4-8.6,7c-2.5,2.9-4.1,5.5-5,7.8l5.6,10.7L2430.3,2195.6z"/>
				<path class="st18" d="M2383.9,2191.2l21.8,41.6l-6.4,3.3l-3.3-6.3c-0.1,3.8-0.6,6.5-1.4,8.2c-0.9,1.7-2.1,2.9-3.8,3.8
					c-2.4,1.2-5.2,1.8-8.4,1.5l-1-7.8c2.3,0.1,4.3-0.3,6-1.2c1.5-0.8,2.7-2,3.4-3.6c0.7-1.6,0.9-3.3,0.6-5.2
					c-0.5-2.9-1.6-5.9-3.1-8.8l-11.4-21.8L2383.9,2191.2z"/>
				<path class="st18" d="M2332.6,2224.6c1.5-3.6,3.1-6.5,5.1-8.7c1.9-2.2,4.3-4,7.1-5.4c4.6-2.4,8.7-3.1,12.3-2.2
					c3.6,0.9,6.4,3.2,8.2,6.6c1.1,2,1.6,4.1,1.5,6.3c0,2.2-0.6,4.2-1.5,6c-1,1.8-2.3,3.5-3.9,5c-1.2,1.1-3.1,2.5-5.7,4.3
					c-5.3,3.7-9.1,6.7-11.3,9c0.5,1,0.8,1.6,0.9,1.9c1.5,2.9,3.2,4.6,5.2,5c2.6,0.6,5.7,0,9.3-1.8c3.3-1.7,5.5-3.6,6.4-5.6
					c1-2,1.1-4.7,0.3-8l7.4-2.7c0.9,3.3,1.1,6.2,0.7,8.8c-0.5,2.6-1.8,5.1-4,7.5c-2.2,2.4-5.1,4.5-8.7,6.4c-3.6,1.9-6.7,3-9.3,3.3
					c-2.7,0.3-4.8,0.1-6.6-0.6c-1.7-0.7-3.3-1.9-4.7-3.7c-0.9-1.1-2.1-3.2-3.8-6.3l-4.9-9.4c-3.4-6.6-5.8-10.6-7-12.2
					c-1.2-1.6-2.7-2.9-4.4-4.1l7.4-3.9C2330,2221.3,2331.4,2222.7,2332.6,2224.6z M2341.4,2240c2-2.4,5.4-5.3,10.1-8.7
					c2.7-1.9,4.5-3.5,5.4-4.6c0.9-1.2,1.5-2.4,1.6-3.8c0.1-1.3-0.1-2.6-0.8-3.9c-1-1.9-2.5-3.1-4.6-3.6s-4.5,0-7.2,1.4
					c-2.7,1.4-4.8,3.3-6.3,5.6c-1.5,2.3-2.2,4.7-2.1,7.3c0.1,2,0.9,4.5,2.6,7.7L2341.4,2240z"/>
				<path class="st18" d="M2304.1,2212.7l30.2,57.6l-6.4,3.4l-2.8-5.4c-0.4,2.9-1.3,5.4-2.6,7.5c-1.4,2.1-3.4,3.8-6.1,5.2
					c-3.6,1.9-7.2,2.6-10.8,2.2c-3.7-0.4-7.1-1.9-10.2-4.5c-3.1-2.6-5.7-5.9-7.8-9.9c-2.2-4.3-3.5-8.5-3.7-12.7
					c-0.3-4.2,0.6-8,2.6-11.3c2-3.3,4.6-5.9,7.8-7.5c2.4-1.2,4.7-1.8,7.1-1.8c2.4,0,4.6,0.5,6.6,1.3l-10.6-20.3L2304.1,2212.7z
					 M2316.8,2252.5c-2.8-5.4-6-8.8-9.5-10.2c-3.5-1.4-6.8-1.3-9.9,0.3c-3.1,1.6-5.1,4.4-6,8.2c-0.8,3.8,0.2,8.5,3.1,14.1
					c2.8,5.3,6,8.7,9.5,10.2c3.6,1.5,6.9,1.5,9.9-0.1c3-1.6,4.9-4.4,5.8-8.4C2320.6,2262.6,2319.6,2257.9,2316.8,2252.5z"/>
				<path class="st18" d="M2267.8,2252l30.1,57.5l-7.1,3.7l-10.8-20.6c-1.3,5.5-4.4,9.6-9.5,12.3c-3.1,1.6-6.1,2.4-9,2.4
					c-2.9,0-5.4-0.9-7.5-2.5c-2.1-1.6-4.2-4.5-6.4-8.6l-13.8-26.4l7.1-3.7l13.8,26.4c1.8,3.5,4,5.7,6.3,6.5c2.4,0.8,5,0.5,7.8-1
					c2.1-1.1,3.8-2.7,5-4.7c1.3-2.1,1.8-4.2,1.6-6.5c-0.2-2.3-1.1-5-2.8-8.3l-11.9-22.8L2267.8,2252z"/>
				<path class="st18" d="M2181.9,2304.9c-4.8-0.6-9-0.7-12.6-0.2l-0.5-6.5c4.9-0.7,10.3-0.5,16,0.6c3-4.6,7.1-8.3,12.2-11
					c5.2-2.7,10.6-3.9,16.1-3.7c5.5,0.3,10.7,2.1,15.3,5.5c4.7,3.4,8.5,7.9,11.5,13.6c3,5.7,4.5,11.4,4.7,17.3
					c0.1,5.9-1.3,11.1-4.3,15.8c-3,4.7-7.1,8.4-12.3,11.1c-5.3,2.8-10.7,4-16.3,3.7c-5.6-0.3-10.7-2.1-15.3-5.5
					c-4.6-3.4-8.4-7.9-11.4-13.6c-2.5-4.7-4-9.4-4.5-13.9C2180,2313.6,2180.4,2309.2,2181.9,2304.9z M2203.7,2305.8
					c-5,1.1-9.6,1.1-13.7,0.2c-2.3,6.4-1.4,13.7,2.9,21.9c2.4,4.7,5.4,8.3,8.8,11c3.4,2.6,7.1,4.1,11.2,4.5c4.1,0.3,8-0.5,11.8-2.5
					c5.7-3,9.4-7.4,11.1-13.2s0.5-12.6-3.5-20.3c-3.9-7.5-8.8-12.2-14.6-14.3c-5.8-2.1-11.6-1.6-17.3,1.4c-2.7,1.4-5,3.3-6.9,5.6
					c3.2,0.3,6.3,0.1,9.3-0.6L2203.7,2305.8z"/>
				<path class="st18" d="M2160.1,2308.4l30.1,57.5l-7.6,4l-26.6-50.7l-28.3,14.8l-3.6-6.8L2160.1,2308.4z"/>
			</g>
		</g>
		<g id="AMQP">
			<g>
				<path class="st16" d="M2854.8,1965.4L2531.5,1806c82.7-167.4,94.9-364.1,34.1-539.1l339.8-117.4
					C2998,1416,2978.8,1712.1,2854.8,1965.4z"/>
			</g>
			<g>
				<g id="AMQP_logo_1_">
					
						<rect x="2799.7" y="1277.2" transform="matrix(2.766318e-03 1 -1 2.766318e-03 4120.7847 -1526.0919)" class="st18" width="51.7" height="51.7"/>
					
						<rect x="2701.7" y="1313.6" transform="matrix(2.766318e-03 1 -1 2.766318e-03 4085.0828 -1427.9336)" class="st18" width="113.6" height="41.3"/>
					
						<rect x="2794.7" y="1334.1" transform="matrix(2.766318e-03 1 -1 2.766318e-03 4177.8472 -1448.9521)" class="st18" width="41.3" height="72.3"/>
					
						<rect x="2763.9" y="1365.2" transform="matrix(2.766318e-03 1 -1 2.766318e-03 4209.1826 -1356.2305)" class="st18" width="41.3" height="134.3"/>
					
						<rect x="2608.8" y="1344.7" transform="matrix(2.766318e-03 1 -1 2.766318e-03 4054.5181 -1334.955)" class="st18" width="175.6" height="41.3"/>
				</g>
				<g id="AMQP_Text">
					<path class="st18" d="M2731.3,1505.3l64.9,24.9v9.3l-64.9,26.6v-9.8l19.7-7.6v-27.1l-19.7-7.1V1505.3z M2757.9,1524.1v22
						l18-6.8c5.5-2.1,9.9-3.6,13.5-4.6c-4.2-0.8-8.3-2-12.4-3.5L2757.9,1524.1z"/>
					<path class="st18" d="M2731.3,1572.6h64.9v12.9l-45.9,15.4c-4.3,1.4-7.5,2.4-9.6,3.1c2.4,0.7,5.8,1.9,10.4,3.5l45.1,15.5v11.6
						h-64.9v-8.3h54.3l-54.3-18.9v-7.7l55.2-18.8h-55.2V1572.6z"/>
					<path class="st18" d="M2738.2,1697.6c-2.7,4-4.8,7.7-6,11l-6-2.5c1.7-4.7,4.3-9.3,8-13.9c-2.7-4.8-4-10.1-4-15.9
						c0-5.9,1.4-11.2,4.2-16s6.8-8.5,12-11c5.1-2.6,10.9-3.9,17.4-3.9c6.4,0,12.2,1.3,17.5,3.9c5.3,2.6,9.2,6.3,12,11.1
						c2.7,4.8,4.1,10.2,4.1,16.1c0,6-1.4,11.4-4.3,16.2c-2.8,4.8-6.8,8.5-12,11c-5.1,2.5-10.9,3.8-17.3,3.8
						c-5.3,0-10.1-0.8-14.4-2.4C2745.1,1703.3,2741.4,1700.9,2738.2,1697.6z M2749.2,1678.7c-1.4,5-3.5,9-6.2,12.3
						c4.6,5,11.5,7.6,20.8,7.6c5.3,0,9.8-0.9,13.8-2.7c3.9-1.8,7-4.4,9.1-7.8c2.2-3.4,3.3-7.3,3.3-11.6c0-6.4-2.2-11.7-6.6-15.9
						c-4.4-4.2-10.9-6.3-19.6-6.3c-8.4,0-14.9,2.1-19.4,6.3c-4.5,4.2-6.8,9.5-6.8,16c0,3.1,0.6,6,1.7,8.7c1.7-2.7,3-5.5,3.7-8.5
						L2749.2,1678.7z"/>
					<path class="st18" d="M2731.3,1718.9h64.9v24.5c0,4.3-0.2,7.6-0.6,9.9c-0.5,3.2-1.5,5.9-3,8c-1.5,2.2-3.6,3.9-6.3,5.2
						c-2.7,1.3-5.6,2-8.9,2c-5.5,0-10.2-1.8-14-5.3c-3.8-3.5-5.7-9.9-5.7-19v-16.6h-26.4V1718.9z M2765.3,1727.5v16.8
						c0,5.5,1,9.5,3.1,11.8c2.1,2.3,5,3.5,8.7,3.5c2.7,0,5-0.7,7-2.1s3.2-3.2,3.8-5.4c0.4-1.4,0.6-4.1,0.6-8v-16.6H2765.3z"/>
				</g>
			</g>
		</g>
		<g id="Webhooks">
			<g>
				<path class="st16" d="M2870.7,1059l-327.8,147.4l-1.6-3.9c-9.6-20.3-19.2-40.6-31.5-59.9c-81.4-139.7-209.5-248.7-361.5-304.3
					l125.3-336.9c228.9,85.4,424.1,249.1,546.6,461.5c17.7,29.2,32.8,59.4,46.5,90.2L2870.7,1059z"/>
			</g>
			<g>
				<g id="Webhooks_logo">
					<path class="st18" d="M2352.4,682.8c-14.5,3.3-28.5,6.6-42.5,9.7c-3.6,0.8-6.1,1.9-8,5.7c-5.1,10.7-17,13.8-26.8,7.7
						c-9.3-5.7-11.3-17.9-4.6-27.2c5.9-8.2,18.4-9.4,27.1-2.5c0.7,0.6,1.4,1.2,2.5,2.3l31.9-7.2c0.3-14.8,4.9-27.8,16.8-37.3
						c8.4-6.7,18-10,28.9-9.7c20.7,0.7,37.9,15.3,41.8,35.6c3.7,19.5-6.1,39.4-23.5,47c-2.4-4.5-4.9-9-7.5-13.9
						c8.6-5.4,14-12.6,14.9-22.7c0.6-6.7-1.4-12.6-5.1-18c-7.5-10.7-22.3-14.2-34.1-8.2C2350.7,651,2346.6,663.8,2352.4,682.8
						L2352.4,682.8z"/>
					<path class="st18" d="M2378.3,688.1c-3.1,10.4-6.3,20.9-9.5,31.4c24.9,13.9,28.1,39.2,21.5,55.6c-8,19.9-28.9,31.4-49.7,27.1
						c-21.3-4.5-35.4-22.4-34.9-44.8c5.2,0.6,10.5,1.2,16.2,1.8c3.5,18.4,13.3,28,29,27.1c13.4-0.8,24.4-11.5,25.5-24.9
						c1.3-15.5-8-25.7-27.6-30.1c4.1-13.5,8.1-27,12.4-40.4c1.5-4.5,1.5-8-1.4-12.3c-4.8-7.2-3.3-16.2,2.4-22.1
						c5.6-5.8,14.2-7.4,21.5-4c7.1,3.4,11.5,11.3,10.4,19.2c-0.9,6.5-4.2,11.4-10.3,14.2C2382.2,686.6,2380.4,687.2,2378.3,688.1
						L2378.3,688.1z"/>
					<path class="st18" d="M2331.2,750.6l-22.6-23.7c-11.5,6.6-23.8,8.9-36.6,5c-10-3-18-8.9-24-17.6c-11-16-9.3-39.3,3.8-53.8
						c14.9-16.3,39.5-18.9,56.7-7.3c-2.7,4.5-5.4,9.1-8.1,13.5c-19.6-6.9-32.7-3.3-39.9,10.7c-6.3,12.3-2.6,26.7,9.1,35
						c12,8.5,25.6,5.5,38.9-8.4c9.4,9.9,18.9,19.7,28.2,29.7c3.6,3.9,6.8,6.5,13,6.2c10.1-0.5,18,8.7,17.7,18.9
						c-0.4,10.4-9.3,18.4-19.8,17.8c-10.1-0.6-17.9-9.4-17.3-19.5C2330.3,755,2330.8,752.9,2331.2,750.6L2331.2,750.6z"/>
				</g>
				<g id="Webhooks_text">
					<path class="st18" d="M2418.3,804.2l35.1-57.2l6.1,6.4l-24,36.5c-2.5,3.8-5.1,7.6-7.7,11.1c6.2-3.6,9.7-5.6,10.7-6.2l40.2-21.3
						l7.1,7.5l-17.4,29.4c-4.3,7.3-8.7,13.8-13.2,19.5c3.5-2.2,7.7-4.7,12.5-7.4l37.2-21.4l6,6.2l-59.3,31.9l-5.7-6l26.4-44
						c2.2-3.7,3.6-5.9,4.1-6.7c-2.6,1.6-4.9,2.9-6.8,3.9l-45.3,24.1L2418.3,804.2z"/>
					<path class="st18" d="M2500.8,868.9l4.9,6.7c-4.4,2.4-8.7,3.2-13.1,2.5c-4.3-0.7-8.4-3-12.2-7c-4.7-5-7-10.4-6.7-16.2
						c0.3-5.8,3.2-11.4,8.7-16.7c5.7-5.5,11.6-8.2,17.5-8.3c6-0.1,11.2,2.3,15.7,7c4.3,4.6,6.3,9.7,6,15.6c-0.4,5.8-3.3,11.4-9,16.8
						c-0.3,0.3-0.9,0.8-1.6,1.4l-24.2-25.4c-3.5,3.8-5.4,7.6-5.6,11.4c-0.2,3.8,1.1,7.1,3.8,10c2,2.1,4.3,3.4,6.8,3.8
						C2494.6,870.9,2497.5,870.4,2500.8,868.9z M2492.1,841.1l18.1,19c2.6-3,4.1-5.8,4.4-8.3c0.5-4-0.7-7.4-3.5-10.3
						c-2.5-2.6-5.5-4-9-4.1C2498.5,837.2,2495.2,838.5,2492.1,841.1z"/>
					<path class="st18" d="M2507.5,897.9l-5.1-5.4l47-44.8l5.5,5.8l-16.8,16c5.4-0.5,9.9,1.2,13.5,5c2,2.1,3.5,4.5,4.4,7.2
						c0.9,2.7,1.2,5.3,0.8,8c-0.4,2.7-1.3,5.4-2.8,8.1c-1.5,2.7-3.5,5.3-5.9,7.6c-5.8,5.6-11.7,8.4-17.6,8.6
						c-5.9,0.1-10.8-1.8-14.7-5.8c-3.8-4-5.2-8.8-4-14.2L2507.5,897.9z M2524.7,881.4c-4.1,3.9-6.5,7.3-7.3,10.1
						c-1.2,4.6-0.4,8.5,2.6,11.6c2.4,2.5,5.6,3.7,9.5,3.4s8.1-2.4,12.4-6.6c4.4-4.2,6.9-8.2,7.3-12s-0.5-6.9-2.9-9.4
						c-2.4-2.5-5.6-3.7-9.5-3.4C2532.9,875.3,2528.8,877.4,2524.7,881.4z"/>
					<path class="st18" d="M2537.2,929.1l47-44.8l5.5,5.8l-16.9,16.1c5.7-0.3,10.5,1.6,14.4,5.7c2.4,2.5,4,5.2,4.8,8
						c0.8,2.8,0.7,5.4-0.3,7.9c-1,2.5-3.1,5.3-6.5,8.5l-21.6,20.5l-5.5-5.8l21.6-20.5c2.9-2.7,4.4-5.4,4.5-7.9
						c0.1-2.5-0.9-4.9-3.1-7.2c-1.6-1.7-3.6-2.9-5.9-3.6c-2.3-0.7-4.5-0.6-6.7,0.2c-2.1,0.8-4.5,2.5-7.2,5l-18.6,17.7L2537.2,929.1z
						"/>
					<path class="st18" d="M2586.9,947.2c6.3-6,12.6-8.7,19-8.1c5.3,0.5,10,2.9,14,7.1c4.5,4.7,6.6,10,6.3,15.9
						c-0.2,5.9-3.1,11.4-8.5,16.6c-4.4,4.2-8.5,6.8-12.2,7.9c-3.8,1.1-7.5,1-11.3-0.2c-3.8-1.2-7.1-3.3-9.9-6.2
						c-4.5-4.8-6.7-10.1-6.4-15.9C2578.1,958.4,2581.1,952.7,2586.9,947.2z M2592.5,953.1c-4.4,4.2-6.7,8.2-7.1,12.2
						c-0.4,4,0.8,7.4,3.6,10.3c2.7,2.9,6.1,4.2,10.1,4c4-0.2,8.2-2.4,12.7-6.6c4.2-4,6.5-8,6.8-12c0.3-4-0.8-7.4-3.5-10.2
						c-2.7-2.9-6.1-4.2-10.1-4.1C2601.1,946.8,2596.9,949,2592.5,953.1z"/>
					<path class="st18" d="M2621.7,983.7c6.3-6,12.6-8.7,19-8.1c5.3,0.5,10,2.9,14,7.1c4.5,4.7,6.6,10,6.3,15.9
						c-0.2,5.9-3.1,11.4-8.5,16.6c-4.4,4.2-8.5,6.8-12.2,7.9c-3.8,1.1-7.5,1-11.3-0.2c-3.8-1.2-7.1-3.3-9.9-6.2
						c-4.5-4.8-6.7-10.1-6.4-15.9C2612.9,994.9,2615.9,989.2,2621.7,983.7z M2627.3,989.7c-4.4,4.2-6.7,8.2-7.1,12.2
						c-0.4,4,0.8,7.4,3.6,10.3c2.7,2.9,6.1,4.2,10.1,4c4-0.2,8.2-2.4,12.7-6.6c4.2-4,6.5-8,6.8-12c0.3-4-0.8-7.4-3.5-10.2
						c-2.7-2.9-6.1-4.2-10.1-4.1C2635.8,983.3,2631.7,985.5,2627.3,989.7z"/>
					<path class="st18" d="M2641.5,1038.6l47-44.8l5.5,5.8l-26.8,25.5l26.8,0.5l7.1,7.5l-25-1l-7.8,34.7l-6.8-7.1l6.7-27.8l-7.8-0.3
						l-13.5,12.9L2641.5,1038.6z"/>
					<path class="st18" d="M2680.7,1059.4l6.3,4.8c-2,2.5-2.9,5.1-2.7,7.7c0.2,2.6,1.5,5.2,4,7.9c2.5,2.6,4.9,4.1,7.2,4.4
						c2.3,0.3,4.2-0.3,5.6-1.7c1.3-1.2,1.8-2.8,1.5-4.6c-0.2-1.3-1.5-3.9-3.7-7.8c-3-5.2-4.8-9.1-5.6-11.4c-0.8-2.4-0.9-4.6-0.3-6.8
						c0.6-2.2,1.7-4,3.4-5.6c1.5-1.4,3.3-2.4,5.2-3s3.9-0.6,5.9-0.2c1.5,0.3,3.2,1,5.2,2.1c1.9,1.1,3.7,2.6,5.4,4.3
						c2.5,2.7,4.4,5.4,5.5,8.1c1.2,2.8,1.5,5.2,1.1,7.4c-0.4,2.2-1.5,4.5-3.4,7l-6.1-4.9c1.5-1.9,2.2-4,2-6.1
						c-0.2-2.2-1.3-4.4-3.5-6.6c-2.5-2.6-4.8-4.1-6.7-4.4c-2-0.3-3.5,0.1-4.7,1.2c-0.7,0.7-1.2,1.6-1.3,2.6c-0.2,1.1,0,2.3,0.6,3.7
						c0.3,0.8,1.5,2.9,3.4,6.5c2.8,5.1,4.6,8.8,5.5,11.1c0.8,2.3,1,4.5,0.6,6.7c-0.5,2.2-1.7,4.2-3.6,6.1c-1.9,1.8-4.3,3-7,3.5
						c-2.8,0.5-5.6,0.1-8.6-1.1c-2.9-1.2-5.7-3.2-8.2-5.9c-4.2-4.4-6.5-8.7-6.9-12.7C2676.4,1067.6,2677.7,1063.5,2680.7,1059.4z"/>
				</g>
			</g>
		</g>
		<g id="MQTT">
			<g>
				<path class="st3" d="M2047.9,2547.2c-279,38.8-566.5-38.2-790.1-208.8l218.5-285c147.9,113.2,338.7,163.9,522.1,139
					L2047.9,2547.2z"/>
				<path class="st20" d="M2063.3,2559.2l-14.1,2.6c-282.1,38.6-574-38.3-800.5-212.2l-11.2-9.1l236.2-308.7l11.2,9.1
					c144.2,111.6,331.4,160.7,511.7,135.6l14.1-2.6L2063.3,2559.2z M1277.6,2335c215,160.4,488.4,232.5,754.9,200.2l-45.3-329.3
					c-178.7,21.5-362.8-27.4-506.8-134.6L1277.6,2335z"/>
			</g>
			<g>
				<g id="MQTT_logo_1_">
					<path class="st21" d="M1840.2,2457.9l6.8-20.8l0,0c-55.2-17.2-84.8-76.4-67.1-130.3l-19-6
						C1740.2,2366.4,1775.8,2436.8,1840.2,2457.9z M1853.7,2416.2l6.8-20.8l0,0c-31.2-10.2-49.2-43.8-39-75l-19-6
						C1788.1,2357.8,1812.1,2402.7,1853.7,2416.2L1853.7,2416.2z M1732.1,2350l-12.8,39.8c3.1,7.8,7.3,18.2,10.4,26.1
						c4.9,8.6,10.4,18.5,16.1,25.3l42.2,14.9C1755,2430,1735,2391.1,1732.1,2350z"/>
					<path class="st22" d="M1861,2396.7L1861,2396.7l16.2-50.3c1.6-3.6-1.3-7-4.9-8.6l-50.3-16.2
						C1811.8,2352.9,1829.8,2386.5,1861,2396.7z M1846.9,2437.1L1846.9,2437.1l6.8-20.8c-41.7-13.6-66.1-59.7-52.5-101.4l-22.7-7.6
						C1762.6,2362,1792.3,2421.1,1846.9,2437.1z M1746,2305.2l-13.8,44.8c2.8,41.2,24.2,79.5,57.2,105.5l41.7,13.6
						c3.6,1.6,7-1.3,8.6-4.9l1.8-6.8c-65.6-20.6-101.2-91-80.6-156.6l-4.9-1C1750.9,2298.7,1747,2300.2,1746,2305.2L1746,2305.2z
						 M1729.7,2415.9c-4.4-7.3-8.6-17.7-10.4-26.1l-11.5,31.8c-1.6,3.6,1.3,7,4.9,8.6l0,0l33.1,11
						C1739.6,2433.1,1733.4,2425,1729.7,2415.9z"/>
				</g>
				<g id="MQTT_Text">
					<path class="st23" d="M1615.5,2352.8l19.6-60.7l6.8,1.8l-16.2,50.3l30.8-21.3l12.7,35.7l16.2-50.3l6.8,1.8l-19.6,60.7l-7.3-3.1
						l-10.9-34.9l-28.9,22.1L1615.5,2352.8z"/>
					<path class="st23" d="M1564.7,2259.7c5.2-2.1,9.6-2.3,16.4-0.5c8.6,2.6,14.8,10.7,15.9,20.9c15.9,5.7,22.6,22.7,17.4,39.9
						c-5.2,17.2-22.4,27.1-39.6,21.8s-24.5-23.5-19.2-40.6c4.4-15.4,18.5-25.5,33.4-22.4c-0.3-4.4-2.9-10.9-10.9-12.3
						c-3.6-1.6-8.1-1.3-12,0.3L1564.7,2259.7z M1562.4,2303c-5,14.1,0.2,27.1,14.3,32.1c14.1,5,26-2.8,31-16.9s-0.2-27.1-14.3-32
						S1567.3,2288.9,1562.4,2303z"/>
					<path class="st23" d="M1499.6,2308.4l20.8,6.8l17.8-53.9l6.8,1.8l-17.8,53.9l20.8,6.8l-1.8,6.8l-46.6-14.6L1499.6,2308.4z"/>
					<path class="st23" d="M1451.1,2293l20.8,6.8l17.8-53.9l6.8,1.8l-17.8,53.9l20.8,6.8l-1.8,6.8l-46.6-14.6L1451.1,2293z"/>
				</g>
			</g>
		</g>
		<g id="gRPC">
			<g>
				<path class="st24" d="M2086.4,819.2c-179.7-49.1-373.2-23.2-535.3,70.1c-21.1,11.4-41.2,25.5-59.9,39l-211.5-291.6
					c29.5-20.8,60.7-40.8,91.2-59.1c29.2-17.7,59.4-32.8,90.2-46.5c224.6-103.2,480.2-125.1,719.5-59L2086.4,819.2z"/>
			</g>
			<g id="gRPC_logo_text">
				<g>
					<g>
						<path class="st22" d="M1585.8,682.1l4.2,34.2c0.9,7.1,2.9,13.2,5.9,18.1c3.1,5,6.8,8.9,11.2,11.9s9.2,5.1,14.3,6.2
							c5.1,1.2,10.2,1.4,15.2,0.8c5-0.6,9.9-2.1,14.6-4.5c4.7-2.4,8.8-5.6,12.3-9.5c3.5-4,6.2-8.7,7.9-14.3s2.2-11.9,1.3-19l-7.1-57
							l-44.3,5.4l2.8,22.9l19.6-2.4l4.2,34.2c0.7,6-0.4,10.6-3.3,13.8c-2.9,3.2-6.7,5.1-11.2,5.7s-8.6-0.4-12.3-2.8
							c-3.7-2.4-5.8-6.6-6.6-12.6l-11.3-91.2c-0.7-6,0.4-10.6,3.3-13.8c2.9-3.2,6.7-5.1,11.2-5.7c4.5-0.6,8.6,0.4,12.3,2.8
							c3.7,2.4,5.8,6.6,6.6,12.6l1.1,8.7l24.7-3.1l-1.1-8.7c-0.9-7-2.8-13-5.9-18c-3.1-5-6.8-9-11.2-12c-4.3-3-9.2-5.1-14.3-6.2
							c-5.1-1.2-10.2-1.4-15.2-0.8c-5,0.6-9.9,2.1-14.6,4.5c-4.7,2.4-8.8,5.6-12.3,9.5c-3.5,4-6.2,8.8-7.9,14.4s-2.2,11.9-1.3,18.9
							l4.2,34.2l-25.3,3.1l-3.2-25.5l7.8-1l-22.6-24.8l-15.9,29.6l8-1l4.6,36.9c0.8,6.3,6.5,10.8,12.8,10L1585.8,682.1L1585.8,682.1
							z"/>
					</g>
				</g>
				<g id="gRPC_Text">
					<path class="st25" d="M1714.6,689.6l7.8,0.2c0.6,2.3,1.7,3.9,3.3,4.9c2.1,1.2,4.9,1.6,8.3,1.2c3.7-0.5,6.4-1.5,8.2-3.2
						c1.8-1.7,2.9-3.9,3.3-6.7c0.2-1.7,0-5.1-0.7-10.2c-3,4.5-7,7.1-12.2,7.7c-6.4,0.8-11.7-0.9-15.8-5.1c-4.1-4.2-6.5-9.5-7.3-16
						c-0.6-4.5-0.3-8.7,0.9-12.6c1.1-4,3.1-7.2,5.9-9.6c2.8-2.4,6.3-3.9,10.4-4.4c5.5-0.7,10.3,1,14.4,5l-0.7-5.6l7.3-0.9l5,40.3
						c0.9,7.3,0.8,12.5-0.3,15.7c-1.1,3.2-3.1,5.9-6.1,8.1c-3,2.2-6.8,3.5-11.5,4.1c-5.6,0.7-10.2,0-14-2.1
						C1717.2,698.2,1715.1,694.6,1714.6,689.6z M1717.7,660.8c0.8,6.1,2.5,10.4,5.3,12.9c2.8,2.5,6,3.5,9.7,3.1
						c3.6-0.4,6.5-2.2,8.6-5.3c2.1-3.1,2.8-7.6,2.1-13.6c-0.7-5.7-2.5-9.9-5.4-12.4c-2.9-2.6-6.1-3.7-9.7-3.2
						c-3.5,0.4-6.3,2.2-8.4,5.4C1717.7,650.7,1717,655.1,1717.7,660.8z"/>
					<path class="st25" d="M1766.7,679.2l-8-64.4l28.6-3.5c5.7-0.7,10.2-0.7,13.3,0.1c3.1,0.8,5.8,2.5,7.9,5.2
						c2.1,2.7,3.4,5.8,3.9,9.4c0.6,4.6-0.4,8.6-3,12.1c-2.6,3.5-6.9,6.1-13,7.7c2.4,0.8,4.2,1.7,5.5,2.6c2.8,2,5.5,4.5,8.1,7.7
						l13.4,16.1l-10.7,1.3l-10.2-12.3c-3-3.6-5.4-6.3-7.2-8.1c-1.9-1.8-3.5-3.1-4.9-3.8c-1.4-0.7-2.7-1.1-4.1-1.2
						c-1-0.1-2.6,0-4.8,0.3l-9.9,1.2l3.5,28.6L1766.7,679.2z M1770.8,642.2l18.3-2.3c3.9-0.5,6.9-1.3,9-2.3c2.1-1.1,3.6-2.6,4.5-4.5
						c0.9-1.9,1.3-3.9,1-6c-0.4-3-1.8-5.4-4.2-7.1c-2.5-1.7-6.1-2.2-10.8-1.6l-20.4,2.5L1770.8,642.2z"/>
					<path class="st25" d="M1831.6,671.2l-8-64.4l24.3-3c4.3-0.5,7.6-0.7,9.9-0.6c3.2,0.1,6,0.8,8.3,2c2.3,1.2,4.3,3.1,5.9,5.6
						c1.6,2.5,2.6,5.4,3,8.5c0.7,5.5-0.5,10.3-3.5,14.5c-3,4.2-9.1,6.9-18.2,8l-16.5,2l3.2,26.2L1831.6,671.2z M1835.9,636.3
						l16.6-2.1c5.5-0.7,9.3-2.2,11.3-4.5c2.1-2.3,2.9-5.4,2.4-9.1c-0.3-2.7-1.3-4.9-2.9-6.7c-1.6-1.7-3.6-2.8-5.9-3.1
						c-1.5-0.2-4.2-0.1-8,0.4l-16.5,2L1835.9,636.3z"/>
					<path class="st25" d="M1934.7,635.5l8.8,1.1c-0.9,7.2-3.5,13-7.7,17.2c-4.2,4.3-9.6,6.8-16.3,7.6c-6.9,0.9-12.8,0.1-17.5-2.1
						c-4.7-2.3-8.5-6-11.4-11c-2.9-5.1-4.8-10.7-5.5-16.8c-0.8-6.7-0.3-12.7,1.7-18c1.9-5.3,5.1-9.6,9.5-12.7
						c4.4-3.2,9.5-5.1,15.1-5.8c6.4-0.8,12.1,0.2,16.9,2.9c4.8,2.7,8.4,7,10.9,12.7l-8.1,3c-2.1-4.5-4.7-7.6-7.8-9.4
						c-3.1-1.8-6.8-2.4-11.1-1.9c-4.9,0.6-8.9,2.3-12,5.1c-3,2.8-5,6.3-5.8,10.4c-0.9,4.2-1,8.4-0.5,12.6c0.7,5.5,2.1,10.2,4.2,14
						c2.1,3.9,5,6.6,8.6,8.2c3.6,1.6,7.4,2.2,11.3,1.7c4.8-0.6,8.6-2.5,11.6-5.6C1932.5,645.4,1934.2,641,1934.7,635.5z"/>
				</g>
			</g>
		</g>
		<g id="SSE">
			<g>
				<path class="st3" d="M1202.6,1454.3l-358.9-21.4c16.1-281.3,147.6-549.7,357.7-734.7l237.8,270.6
					C1301.1,1091.8,1214.5,1268.3,1202.6,1454.3z"/>
				<path class="st26" d="M1216.4,1469.9l-387-23.8l0.5-13.8c17.7-284.9,149.5-556.5,362.9-744.4l10.2-8.6l255.5,292.2l-10.2,8.6
					c-136.6,119.4-221.1,293.6-231.4,475.9L1216.4,1469.9z M859.3,1419.1l331.3,20.3c14.5-179.5,97.5-350,230.4-471l-220.7-250.2
					C1003.3,898,878,1151.9,859.3,1419.1z"/>
			</g>
			<g id="SSE_Logo">
				<g id="WebSocket_logo_3_">
					<path class="st22" d="M1132.7,1194.1l13.3-18.8l-45-31.7l-36.1,6.7l3.9,22.3l26.3-5.2L1132.7,1194.1L1132.7,1194.1z
						 M1155.2,1181.3l-19.3,27.9l-27.5,39.3l-26.3,5.2l-2-11.1l22.3-3.9l19.3-27.9l-44.6,7.8l-2-11.1l44.6-7.8l-26.2-18.4l-22.3,3.9
						l-2-11.1l-55.7,9.8l-23.4,33.6l0,0l-23.4,33.6l32.1-5.5l0,0l0,0l27.5-39.3l23.6-4.3l4.9,35.2l-23.6,4.3l-10.9-6.9l-13.3,18.8
						l18.8,13.3l55.7-9.8l3.9,22.3l36.1-6.7l23.4-33.6l43.1-60.2l0,0L1155.2,1181.3L1155.2,1181.3z"/>
				</g>
			</g>
			<g id="SSE_Text">
				<path class="st27" d="M1143,1066.2c9.3,6.4,9.3,17.4,0.9,29.7c-10.2,14.8-20.9,16.4-30.4,11l4-5.9c7.5,4.6,15.3-0.4,21.3-9.1
					c5.8-8.5,6.5-15.8,0.6-19.8c-12.3-8.4-29.6,30.1-46.8,18.4c-8.2-5.6-9.5-15.8-0.9-28.3c9.1-13.3,20.1-14.7,27.9-10l-4,5.8
					c-5.4-2.8-12.3-1.3-18.6,7.8c-7.8,11.4-4,16.9-0.7,19.1C1108,1092.8,1125.6,1054.2,1143,1066.2z"/>
				<path class="st27" d="M1175,1019.7c9.3,6.4,9.3,17.4,0.9,29.7c-10.2,14.8-20.9,16.4-30.4,11l4-5.9c7.5,4.6,15.3-0.4,21.3-9.1
					c5.8-8.5,6.5-15.8,0.6-19.9c-12.3-8.4-29.6,30.1-46.8,18.4c-8.2-5.6-9.5-15.8-0.9-28.3c9.1-13.3,20.1-14.7,27.9-10l-4,5.8
					c-5.4-2.8-12.3-1.3-18.6,7.8c-7.8,11.4-4,16.9-0.7,19.1C1139.9,1046.3,1157.5,1007.7,1175,1019.7z"/>
				<path class="st27" d="M1154.1,984.1l16.8,11.5l19.1-27.9l5.5,3.8l-19.1,27.9l16.9,11.6l21.4-31.2l5.5,3.7l-25.3,36.9l-50.1-34.4
					l25.3-36.9l5.5,3.7L1154.1,984.1z"/>
			</g>
		</g>
		<g id="REST">
			<g>
				<path class="st3" d="M1182.6,2274.8c-77-72-143.1-154.3-196.4-246.3c-17.7-29.2-32.8-59.4-46.5-90.2
					c-59-129-90.9-265.8-96-407.2l359.2-11.9c2.3,92.7,24.9,183.4,63.1,267.8c9.6,20.3,19.2,40.6,31.5,59.9
					c35.1,61.5,79.1,114.9,129.8,162.6L1182.6,2274.8z"/>
				<path class="st28" d="M1182.9,2294.3l-9.9-9.6c-78.9-72.7-145.5-156.4-199.3-249.7c-17.7-29.2-33.3-60.7-47.1-91.5
					c-59.5-130.3-92.5-269.7-98.1-412.4l-0.8-13.3l387.6-12.7l0.8,13.3c3,90.9,23.3,179.5,62.3,262.1c9.6,20.3,18.7,39.3,30.9,58.6
					c34.6,60.2,76.7,112.8,127,159.3l9.9,9.6L1182.9,2294.3z M856.9,1545.4c6.9,134.7,37.5,264.4,94.5,388.2
					c13.8,30.7,30.2,60.5,46,88.9c49.4,86,112.6,165,183.7,233.3l225.8-244.1c-47.1-46.1-89.3-98.8-122.8-156.4
					c-10.9-19.8-22.4-40.9-32-61.2c-37.2-81.8-60-169.4-64.4-259.7L856.9,1545.4z"/>
			</g>
			<g id="REST_logo_text">
				<g id="REST_Text">
					<path class="st27" d="M1150.5,1842.5l2.7,6.3l-55.8,24.1l-11.6-26.7c-5-11.5-1.3-21.7,9.3-26.3c10.8-4.7,17.5,1,21.7,6.6
						l16.1-24.4l3.2,7.5l-15.6,22.7l8.4,19.4L1150.5,1842.5z M1123.2,1854.4l-8.4-19.3c-2.6-6-8.1-12.6-16.8-8.8
						c-7.1,3.1-9.2,10.3-5.7,18.2l8.5,19.6L1123.2,1854.4z"/>
					<path class="st27" d="M1076.5,1807.7l18.7-8.1l-13.4-31l6.1-2.7l13.4,31l18.8-8.1l-15-34.7l6.1-2.6l17.8,41l-55.8,24.1
						l-17.8-41l6.1-2.6L1076.5,1807.7z"/>
					<path class="st27" d="M1073.4,1706.6c10.4-4.5,19.7,1.4,25.6,15.1c7.1,16.5,2.7,26.4-6.9,31.6l-2.8-6.6
						c7.9-3.9,7.8-13.2,3.6-22.9c-4.1-9.4-9.9-13.9-16.5-11.1c-13.6,5.9,9.8,41.1-9.3,49.3c-9.1,3.9-18.4-0.3-24.5-14.3
						c-6.4-14.8-1.8-24.8,6.4-29l2.8,6.5c-5.3,3.1-7.7,9.7-3.3,19.9c5.5,12.6,12.1,12.3,15.9,10.7
						C1077.3,1750.4,1053.9,1715,1073.4,1706.6z"/>
					<path class="st27" d="M1018,1672.6l8.4,19.5l49.7-21.5l2.7,6.3l-49.7,21.5l8.4,19.5l-6.1,2.6l-19.6-45.2L1018,1672.6z"/>
				</g>
				<g id="REST_Logo">
					<path class="st29" d="M1133.3,2057.1l8.7-4.3c4.5,8.7,9,9.6,20.3,3.9l21.3-10.6c12.1-6,19.7-5.3,24.6-2.7c0.9-5.5,4.9-12,17-18
						l21.3-10.6c11.3-5.6,13.3-9.8,9.1-18.6l8.7-4.3c5.2,10.4,7.8,19.2-14,30l-23.2,11.6c-10.6,5.3-12.7,12.9-11,16.3l-7.4,3.7
						c-1.7-3.4-9-6.3-19.6-1l-23.2,11.6C1144,2074.8,1138.5,2067.4,1133.3,2057.1z"/>
					<path class="st29" d="M1152.7,2023.6l16.4-8.2l5.3,10.6l-16.4,8.2L1152.7,2023.6z M1216.8,1991.5l16.4-8.2l5.3,10.6l-16.4,8.2
						L1216.8,1991.5z"/>
					<path class="st29" d="M1102.5,1995.7l127.3-32.3l3.8,7.6l-127.3,32.3L1102.5,1995.7z"/>
					<path class="st29" d="M1089.6,1969.9l127.3-32.3l3.8,7.6l-127.3,32.3L1089.6,1969.9z"/>
					<path class="st29" d="M1123.7,1921.6c10.6-5.3,12.7-12.9,11-16.3l7.4-3.7c1.7,3.4,9,6.3,19.6,1l23.2-11.6
						c21.8-10.9,27.3-3.5,32.4,6.9l-8.7,4.3c-4.5-8.7-9-9.6-20.3-3.9l-21.3,10.6c-12.1,6-19.7,5.3-24.6,2.7c-0.9,5.5-4.9,12-17,18
						l-21.3,10.6c-11.3,5.6-13.3,9.8-9.1,18.6l-8.7,4.3c-5.2-10.4-7.8-19.2,14-30L1123.7,1921.6z"/>
				</g>
			</g>
		</g>
	</g>
</g>
<g id="Browser">
	<path class="st30" d="M649.8,2139.3H122.2c-7.6,0-13.6-6.1-13.6-13.6v-12.9c0-3.8,3-7.6,7.6-7.6h540.5c3.8,0,7.6,3,7.6,7.6v12.9
		C663.4,2133.3,657.3,2139.3,649.8,2139.3z"/>
	<path class="st30" d="M625.5,2084.4H146.4c-8.3,0-15.1-6.8-15.1-15.1v-286.1c0-8.3,6.8-15.1,15.1-15.1h479.1
		c8.3,0,15.1,6.8,15.1,15.1v286.1C640.7,2077.5,633.9,2084.4,625.5,2084.4z"/>
	<path class="st31" d="M614.9,2066.9H157c-3.8,0-7.6-3-7.6-7.6v-267.2c0-3.8,3-7.6,7.6-7.6h457.9c3.8,0,7.6,3,7.6,7.6v267.2
		C622.5,2063.9,618.7,2066.9,614.9,2066.9z"/>
</g>
<g id="Mobile">
	<path class="st30" d="M453.3,1176.7H318.6c-7.6,0-13.6-6.1-13.6-13.6V944.4c0-7.6,6.1-13.6,13.6-13.6h134.7
		c7.6,0,13.6,6.1,13.6,13.6v218.8C467,1170.7,460.9,1176.7,453.3,1176.7z"/>
	<line class="st32" x1="305" y1="969.3" x2="467.7" y2="969.3"/>
	<line class="st32" x1="305" y1="1133.6" x2="467.7" y2="1133.6"/>
	<line class="st32" x1="367" y1="1154" x2="404.9" y2="1154"/>
	<rect x="305" y="969.3" class="st31" width="162" height="164.3"/>
</g>
<g id="Services">
	<line class="st33" x1="279.8" y1="452.2" x2="490.8" y2="256.6"/>
	<line class="st33" x1="280.5" y1="256.2" x2="495.8" y2="450.5"/>
	<line class="st33" x1="386.3" y1="438.5" x2="386.3" y2="271.5"/>
	<line class="st33" x1="302.8" y1="494.4" x2="469.9" y2="494.4"/>
	<line class="st33" x1="302.8" y1="215.7" x2="469.9" y2="215.7"/>
	<line class="st33" x1="256.2" y1="438.5" x2="256.2" y2="271.5"/>
	<line class="st33" x1="516.5" y1="438.5" x2="516.5" y2="271.5"/>
	<line class="st33" x1="302.8" y1="355" x2="469.9" y2="355"/>
	<g>
		<g>
			<polygon class="st34" points="304.5,243.6 304.5,187.8 256.2,159.8 207.8,187.8 207.8,243.6 256.2,271.5 			"/>
			<polygon class="st3" points="304.5,187.8 256.2,215.7 207.8,187.8 256.2,159.8 			"/>
		</g>
		<g>
			<polygon class="st34" points="434.7,243.6 434.7,187.8 386.3,159.8 338,187.8 338,243.6 386.3,271.5 			"/>
			<polygon class="st3" points="434.7,187.8 386.4,215.7 338,187.8 386.4,159.8 			"/>
		</g>
		<g>
			<polygon class="st34" points="564.9,243.6 564.9,187.8 516.5,159.8 468.2,187.8 468.2,243.6 516.5,271.5 			"/>
			<polygon class="st3" points="564.9,187.8 516.5,215.7 468.2,187.8 516.5,159.8 			"/>
		</g>
		<g>
			<polygon class="st34" points="304.5,382.9 304.5,327.1 256.2,299.2 207.8,327.1 207.8,382.9 256.2,410.8 			"/>
			<polygon class="st3" points="304.5,327.1 256.2,355 207.8,327.1 256.2,299.2 			"/>
		</g>
		<g>
			<polygon class="st34" points="434.7,382.9 434.7,327.1 386.3,299.2 338,327.1 338,382.9 386.3,410.8 			"/>
			<polygon class="st3" points="434.7,327.1 386.3,355 338,327.1 386.3,299.2 			"/>
		</g>
		<g>
			<polygon class="st34" points="564.9,382.9 564.9,327.1 516.5,299.2 468.2,327.1 468.2,382.9 516.5,410.8 			"/>
			<polygon class="st3" points="564.9,327.1 516.5,355 468.2,327.1 516.5,299.2 			"/>
		</g>
		<g>
			<polygon class="st34" points="304.5,522.3 304.5,466.4 256.2,438.5 207.8,466.4 207.8,522.3 256.2,550.2 			"/>
			<polygon class="st3" points="304.5,466.4 256.2,494.4 207.8,466.4 256.2,438.5 			"/>
		</g>
		<g>
			<polygon class="st34" points="434.7,522.3 434.7,466.4 386.3,438.5 338,466.4 338,522.3 386.3,550.2 			"/>
			<polygon class="st3" points="434.7,466.4 386.3,494.4 338,466.4 386.3,438.5 			"/>
		</g>
		<g>
			<polygon class="st34" points="564.9,522.3 564.9,466.4 516.5,438.5 468.2,466.4 468.2,522.3 516.5,550.2 			"/>
			<polygon class="st3" points="564.9,466.4 516.5,494.4 468.2,466.4 516.5,438.5 			"/>
		</g>
	</g>
</g>
<g id="Sensors">
	<line class="st35" x1="250.8" y1="2754.6" x2="319.2" y2="2689.3"/>
	<line class="st35" x1="220.2" y1="2633.2" x2="307.9" y2="2649.5"/>
	<line class="st35" x1="468.5" y1="2639.8" x2="392.6" y2="2655.7"/>
	<line class="st35" x1="447.7" y1="2768.8" x2="375.2" y2="2695.4"/>
	<path class="st36" d="M363.2,2621.9c32.4,9.8,50.7,44,40.9,76.4c-9.8,32.4-44,50.7-76.4,40.9c-32.4-9.8-50.7-44-40.9-76.4
		c7.1-23.3,27.2-40.2,51.4-43.1"/>
	<circle class="st37" cx="232.7" cy="2780" r="32.4"/>
	<circle class="st37" cx="462.1" cy="2786.2" r="23.3"/>
	<circle class="st37" cx="501.2" cy="2636.2" r="37.9"/>
	<circle class="st37" cx="201.3" cy="2632.9" r="19.4"/>
	<path class="st38" d="M312.1,2568.9c10.6-10.3,24.7-16.2,39.5-16.3c14.8,0.2,29,6,39.7,16.3"/>
	<circle class="st39" cx="351.8" cy="2603.8" r="18.2"/>
	<path class="st38" d="M290.4,2543.1c34.7-31.7,87.7-31.7,122.4,0"/>
	<path class="st38" d="M267.9,2516.6c47.8-42.7,120-42.7,167.8,0"/>
</g>
</svg>
